<?xml version="1.0" encoding="utf-8" ?><svg xmlns="http://www.w3.org/2000/svg" xmlns:xlink="http://www.w3.org/1999/xlink" width="400" height="401" viewBox="0 0 400 401"><path fill="#079BB6" transform="scale(0.297398 0.297478)" d="M166.217 255.529C179.663 239.954 193.23 224.433 207.86 209.947C304.34 113.285 428.504 49.0187 563.145 26.0533C581.235 23.0211 599.425 19.4551 617.738 18.0438C761.738 6.94665 895.818 36.0664 1019.99 110.257C1048.83 127.489 1077.65 146.583 1103.12 168.569C1118.45 181.798 1133.99 195.349 1148.21 209.756C1258.6 320.093 1326 466.174 1338.3 621.743C1342.45 679.301 1339 735.557 1329.74 792.42C1329.63 792.708 1329.52 792.994 1329.42 793.283C1326.96 800.244 1326.13 808.851 1324.55 816.157C1321.53 830.094 1318.02 843.92 1314.03 857.611C1296.78 917.017 1271.24 971.144 1239.29 1023.96C1222.47 1047.75 1207.01 1072.1 1188.11 1094.41C1177.53 1106.91 1166.45 1118.79 1155.15 1130.63C1149.93 1136.1 1144.03 1141.45 1139.17 1147.19C1125.65 1159.05 1112.89 1171.75 1099.04 1183.24C1070.41 1206.98 1039.1 1227.5 1007.05 1246.24C989.038 1256.67 970.554 1265.65 951.706 1274.46L947.986 1276.17L930.264 1283.89L923.633 1286.49L903.977 1294.12L895.849 1297.01L874.719 1304.12C793.89 1326.43 732.301 1335.52 648.184 1332.35L645.086 1332.27C637.082 1330.94 628.293 1331.08 620.159 1330.48C606.503 1329.4 592.886 1327.86 579.332 1325.87C505.654 1314.87 430.935 1291.47 365.402 1255.6C210.564 1172.69 95.0354 1031.64 44.25 863.533C40.7337 855.252 38.8548 845.256 36.6635 836.541C26.9379 797.863 18.1905 755.328 17.6577 715.297C16.6045 708.57 16.7488 701.12 16.4997 694.289C15.5172 667.352 15.8564 639.315 18.922 612.509C19.5835 600.716 21.4702 588.946 22.9558 577.233C25.2198 562.742 27.8166 548.306 30.7441 533.935L37.2521 506.032C40.1988 498.638 41.843 490.138 44.1153 482.459C47.928 469.964 52.0977 457.58 56.6192 445.323C82.2834 376.378 119.33 312.224 166.217 255.529Z"/><path fill="#37A4B9" transform="scale(0.297398 0.297478)" d="M17.6577 715.297C16.6045 708.57 16.7488 701.12 16.4997 694.289C15.5172 667.352 15.8564 639.315 18.922 612.509C20.2067 616.286 18.7472 620.932 20.9783 624.122C20.8022 636.325 19.3017 648.48 19.1978 660.722C19.0601 676.949 20.4168 693.752 19.4195 709.882C19.2685 712.326 18.9468 713.262 17.6577 715.297Z"/><path fill="white" transform="scale(0.297398 0.297478)" d="M673.425 50.7303C1017.97 48.1094 1299.36 325.31 1301.84 669.781C1304.31 1014.25 1026.93 1295.46 682.385 1297.79C338.046 1300.12 56.9778 1023 54.5044 678.738C52.0311 334.475 329.089 53.3496 673.425 50.7303Z"/><path fill="#079BB6" transform="scale(0.297398 0.297478)" d="M694.029 327.402C694.254 327.372 694.478 327.332 694.704 327.311C708.52 326.075 739.837 325.856 749.928 335.56C752.615 338.145 753.02 341.097 753.28 344.681C754.72 364.61 753.527 385.368 753.415 405.376L753.126 512.879L752.971 829.807L753.129 932.584C753.155 947.705 752.546 963.072 753.05 978.164C753.109 979.925 753.263 983.196 754.578 984.549C757.85 987.918 872.02 983.19 888.174 985.821C891.564 986.373 893.957 987.253 896.436 989.662C904.967 997.958 906.274 1012.48 906.173 1023.67C906.074 1034.63 904.696 1049.28 896.166 1057.25C892.75 1060.44 888.579 1061.36 884.025 1061.69C878.049 1062.13 871.879 1061.79 865.881 1061.82L826.987 1061.96L703.936 1061.96L572.712 1061.9C550.528 1061.9 527.712 1062.98 505.589 1061.74C499.828 1061.42 494.86 1059.67 491.055 1055.19C481.602 1044.06 482.737 1023.42 484.155 1009.96C486.412 1000.07 488.879 992.814 496.826 986.014C521.177 983.229 648.758 988.322 655.729 984.547C658.544 968.281 656.925 942.058 656.923 924.553L656.927 807.889L656.891 556.989C656.825 514.328 657.665 471.411 656.375 428.787C644.64 434.373 633.363 441.851 622.147 448.435L546.767 493.4C533.764 501.117 511.663 515.811 497.325 518.85C494.063 519.541 491.376 519.767 488.564 517.707C483.448 513.96 481.731 506.035 480.909 500.058C479.218 487.772 478.959 460.301 487.102 450.363C490.119 446.682 494.786 443.482 498.658 440.763C510.944 432.14 523.87 424.268 536.53 416.204L602.626 374.249L644.298 347.675C652.493 342.461 660.791 336.571 669.558 332.41C677.204 328.782 685.725 328.104 694.029 327.402Z"/><path fill="#C2C0BF" fill-opacity="0.39607844" transform="scale(0.297398 0.297478)" d="M1329.74 792.42L1330.38 792.494C1336.16 774.79 1336.53 752.58 1339.26 733.955C1339.94 736.492 1339.76 739.336 1339.83 741.962C1342.86 737.32 1336.28 715.311 1341.59 712.13L1342.67 712.656C1343.39 714.815 1343.44 716.524 1342.81 718.725C1341.94 721.776 1342.73 727.081 1342.78 730.373C1342.92 739.707 1344.08 768.996 1340.95 776.364C1338.69 781.683 1336.85 801.78 1337.81 807.478C1335.91 809.58 1330.85 823.627 1331.01 826.092C1331.06 826.951 1331.26 827.776 1331.48 828.603C1329.67 831.728 1326.6 835.917 1325.77 839.404C1324.62 844.299 1326.63 851.019 1324.18 855.409C1323.38 855.427 1323.79 855.465 1322.96 855.275L1322.1 856.795L1323.42 860.858C1317.62 872 1317.01 883.839 1313.5 895.698C1310.14 907.085 1291.87 955.47 1284.64 961.726C1283.95 959.066 1285.86 954.305 1286.55 951.593L1286.21 951.513C1277.48 968.272 1269.87 985.685 1260.75 1002.22L1260.91 1002.53C1262.56 1000.14 1264.6 998.076 1266.16 995.654C1269.56 990.4 1272.74 981.057 1277.77 977.509L1278.59 977.852L1278.28 978.661C1275.95 984.833 1272.7 993.606 1271.44 999.96C1267.58 1007.91 1262.59 1015.29 1258.27 1023C1249.17 1039.26 1240.03 1055.61 1229.23 1070.82C1213.29 1093.25 1194.07 1113.96 1174.98 1133.72C1165.09 1143.94 1155.55 1154.51 1145.17 1164.24C1139.3 1169.73 1133.05 1174.7 1127 1179.97C1111.3 1193.63 1095.74 1206.9 1078.94 1219.24C1075.58 1221.71 1071.49 1223.18 1068.09 1225.61C1061.44 1230.36 1055.34 1235.84 1048.5 1240.45C1043.55 1243.78 1038.09 1246.26 1033.03 1249.43C1017.38 1259.23 1001.79 1269.37 985.703 1278.47C972.404 1285.99 958.21 1291.53 944.236 1297.63C940.481 1299.27 935.797 1300.42 932.33 1302.4C916.253 1301.39 897.612 1308.87 882.309 1313.45C879.284 1314.35 875.119 1316.48 872.166 1316.88C870.814 1317.07 869.289 1316.78 867.956 1316.54C866.705 1317.11 865.49 1317.62 864.342 1318.39C860.723 1320.8 855.471 1319.71 851.221 1320.64C839.805 1323.14 828.578 1326.48 817.129 1328.87C808.163 1330.74 799.046 1331.73 790.021 1333.25C778.766 1335.14 768.105 1337.26 756.584 1336.78C754.639 1336.69 753.946 1337.04 752.313 1338C748.245 1340.39 723.433 1339.89 718.901 1338.59C718.604 1338.51 718.312 1338.41 718.017 1338.32C721.176 1337.36 741.511 1336.8 747.225 1336.03C778.335 1331.86 808.595 1327.05 839.071 1319.26C848.804 1316.77 858.868 1314.52 868.161 1310.66C872.484 1308.87 876.172 1309.51 879.897 1306.07L880.156 1305.26C879.544 1305.11 878.98 1304.91 878.347 1304.95C878.639 1304.94 878.934 1304.87 879.224 1304.91C883.332 1305.53 886.732 1303.61 890.963 1303.28C891.271 1303.26 891.58 1303.24 891.888 1303.22C892.476 1302.33 893.054 1301.45 893.623 1300.55C893.797 1300.53 893.972 1300.51 894.146 1300.49C894.435 1300.46 894.724 1300.42 895.014 1300.39C897.574 1300.1 899.001 1300.05 901.015 1298.34L900.128 1297.76C900.199 1297.75 900.269 1297.73 900.339 1297.74C902.307 1297.9 903.846 1298 905.815 1297.77L906.332 1296.84L905.652 1295.4L906.572 1295.16L907.656 1296.21C908.852 1296.31 909.408 1296.32 910.502 1295.76C914.36 1293.77 918.098 1291.9 922.239 1290.55C923.356 1290.19 922.883 1290.54 923.583 1289.55L922.773 1288.49L923.633 1286.49L930.264 1283.89C930.534 1285.5 930.24 1285.46 931.587 1286.58C936.94 1287.04 942.19 1284.33 946.511 1281.38C948.232 1280.21 949.101 1279.4 949.518 1277.35L947.986 1276.17L951.706 1274.46C951.718 1274.56 951.721 1274.66 951.743 1274.76C952.126 1276.49 951.872 1276.83 953.432 1277.78C969.262 1271.88 986.124 1263.52 1000.53 1254.73C1002.92 1253.28 1007.96 1250.94 1008.59 1248.33L1007.05 1246.24C1039.1 1227.5 1070.41 1206.98 1099.04 1183.24C1112.89 1171.75 1125.65 1159.05 1139.17 1147.19C1141.34 1146.93 1142.97 1145.81 1144.63 1144.45C1154.45 1136.39 1162.76 1126.01 1171.62 1116.93C1177.01 1111.4 1183.02 1106.68 1188.01 1100.76C1192.73 1095.17 1197.39 1089.34 1201.48 1083.28C1204.5 1078.82 1207.11 1074.04 1210.26 1069.69C1214.24 1064.23 1219.44 1059.71 1223.32 1054.19C1229.64 1045.21 1233.61 1032.22 1241.77 1025.16L1242.67 1024.39L1242.48 1023.91L1239.29 1023.96C1271.24 971.144 1296.78 917.017 1314.03 857.611C1318.02 843.92 1321.53 830.094 1324.55 816.157C1326.13 808.851 1326.96 800.244 1329.42 793.283C1329.52 792.994 1329.63 792.708 1329.74 792.42Z"/><path fill="#A09B9A" fill-opacity="0.39607844" transform="scale(0.297398 0.297478)" d="M44.25 863.533C95.0354 1031.64 210.564 1172.69 365.402 1255.6C430.935 1291.47 505.654 1314.87 579.332 1325.87C592.886 1327.86 606.503 1329.4 620.159 1330.48C628.293 1331.08 637.082 1330.94 645.086 1332.27L644.691 1333.35C639.072 1334.25 633.219 1331.7 627.769 1332.95C627.694 1334.28 627.74 1335.42 627.944 1336.74C626.187 1337.1 625.676 1336.44 624.132 1336.56C621.621 1336.74 614.867 1342.2 613.4 1344.48C612.926 1345.21 612.519 1345.9 612.156 1346.7C610.915 1347 610.433 1347.03 609.183 1346.67C598.893 1343.64 566.903 1343.66 561.415 1340.74C555.474 1337.59 553.641 1341.13 549.088 1339.7C545.617 1338.6 542.763 1338.22 539.111 1338.2C537.089 1338.19 535.414 1338.18 533.453 1337.57C525.177 1335.01 517.246 1331.09 509.051 1328.41C505.045 1327.09 500.781 1326.49 496.728 1325.28C492.53 1324.02 488.572 1321.91 484.346 1320.59C476.251 1318.05 467.747 1316.26 459.831 1313.25C329.845 1264.68 217.157 1178.71 135.983 1066.19C127.79 1054.77 119.694 1042.56 112.676 1030.39C109.602 1025.06 107.304 1018.99 104.001 1013.88C102.362 1011.35 100.04 1009.28 98.3706 1006.77C93.7879 999.891 86.6852 985.387 82.7378 977.633C76.9987 966.359 71.3802 952.789 66.8676 940.914C64.9221 935.794 63.5513 930.687 61.3319 925.64C57.8003 917.609 43.3563 875.2 43.226 867.809C43.1981 866.227 43.6722 864.973 44.25 863.533Z"/><defs><linearGradient id="gradient_0" gradientUnits="userSpaceOnUse" x1="764.67786" y1="1334.5087" x2="760.64777" y2="1313.4285"><stop offset="0" stop-color="#ACACAB" stop-opacity="0.38039216"/><stop offset="1" stop-color="#A3A3A2" stop-opacity="0.48235294"/></linearGradient></defs><path fill="url(#gradient_0)" transform="scale(0.297398 0.297478)" d="M878.347 1304.95C878.98 1304.91 879.544 1305.11 880.156 1305.26L879.897 1306.07C876.172 1309.51 872.484 1308.87 868.161 1310.66C858.868 1314.52 848.804 1316.77 839.071 1319.26C808.595 1327.05 778.335 1331.86 747.225 1336.03C741.511 1336.8 721.176 1337.36 718.017 1338.32C718.312 1338.41 718.604 1338.51 718.901 1338.59C723.433 1339.89 748.245 1340.39 752.313 1338C753.946 1337.04 754.639 1336.69 756.584 1336.78C768.105 1337.26 778.766 1335.14 790.021 1333.25C799.046 1331.73 808.163 1330.74 817.129 1328.87C828.578 1326.48 839.805 1323.14 851.221 1320.64C855.471 1319.71 860.723 1320.8 864.342 1318.39C865.49 1317.62 866.705 1317.11 867.956 1316.54C869.289 1316.78 870.814 1317.07 872.166 1316.88C875.119 1316.48 879.284 1314.35 882.309 1313.45C897.612 1308.87 916.253 1301.39 932.33 1302.4C925.936 1307.13 916.884 1309.66 909.382 1312.29C870.343 1325.97 828.945 1335.4 788.028 1341.51C778.234 1342.97 768.247 1343.82 758.395 1344.79C754.772 1345.14 750.961 1345.11 747.398 1345.77L745.511 1344.6C736.292 1344.3 705.876 1337.24 699.017 1340.89C694.69 1340.67 690.531 1341.23 686.234 1341.12L685.398 1340.24C686.128 1339.56 687.613 1339.3 688.574 1338.98C686.754 1338.58 685.262 1338.17 683.596 1337.28L685.73 1336.68C683.685 1335.23 674.541 1337.12 671.748 1337.28C664.609 1337.67 654.076 1337.13 647.046 1336.05L645.715 1335.83C648.752 1335.75 652.561 1335.7 655.413 1334.63C653.403 1334.22 650.591 1333.95 648.888 1332.84C648.649 1332.68 648.418 1332.51 648.184 1332.35C732.301 1335.52 793.89 1326.43 874.719 1304.12L878.347 1304.95Z"/><path fill="white" fill-opacity="0.23921569" transform="scale(0.297398 0.297478)" d="M1271.44 999.96C1272.7 993.606 1275.95 984.833 1278.28 978.661L1278.59 977.852L1277.77 977.509C1272.74 981.057 1269.56 990.4 1266.16 995.654C1264.6 998.076 1262.56 1000.14 1260.91 1002.53L1260.75 1002.22C1269.87 985.685 1277.48 968.272 1286.21 951.513L1286.55 951.593C1285.86 954.305 1283.95 959.066 1284.64 961.726C1291.87 955.47 1310.14 907.085 1313.5 895.698C1317.01 883.839 1317.62 872 1323.42 860.858L1322.1 856.795L1322.96 855.275C1323.79 855.465 1323.38 855.427 1324.18 855.409C1326.63 851.019 1324.62 844.299 1325.77 839.404C1326.6 835.917 1329.67 831.728 1331.48 828.603C1331.26 827.776 1331.06 826.951 1331.01 826.092C1330.85 823.627 1335.91 809.58 1337.81 807.478L1337.68 808.692C1337.47 810.786 1337.79 812.794 1337.56 814.92C1334.91 839.383 1329.9 866.646 1321.8 889.83C1320.38 893.873 1320.59 898.355 1319.2 902.374C1317.95 905.954 1315.67 909.289 1314.19 912.817C1310.97 920.504 1308.44 928.472 1305.18 936.138C1300.85 946.303 1278.34 994.918 1271.44 999.96Z"/><defs><linearGradient id="gradient_1" gradientUnits="userSpaceOnUse" x1="636.53223" y1="1340.2405" x2="636.6405" y2="1337.2327"><stop offset="0" stop-color="#AFAFAF" stop-opacity="0.34117648"/><stop offset="1" stop-color="#A7A7A6" stop-opacity="0.38431373"/></linearGradient></defs><path fill="url(#gradient_1)" transform="scale(0.297398 0.297478)" d="M645.086 1332.27L648.184 1332.35C648.418 1332.51 648.649 1332.68 648.888 1332.84C650.591 1333.95 653.403 1334.22 655.413 1334.63C652.561 1335.7 648.752 1335.75 645.715 1335.83L647.046 1336.05L647.662 1337.92C654.025 1340.42 691.977 1343.98 697.942 1341.49C698.321 1341.33 698.659 1341.09 699.017 1340.89C705.876 1337.24 736.292 1344.3 745.511 1344.6L747.398 1345.77C742.781 1346.37 736.838 1346.31 732.567 1348L615.798 1348C614.481 1347.29 613.588 1347.06 612.156 1346.7C612.519 1345.9 612.926 1345.21 613.4 1344.48C614.867 1342.2 621.621 1336.74 624.132 1336.56C625.676 1336.44 626.187 1337.1 627.944 1336.74C627.74 1335.42 627.694 1334.28 627.769 1332.95C633.219 1331.7 639.072 1334.25 644.691 1333.35L645.086 1332.27Z"/><path fill="#C2C0BF" fill-opacity="0.52549022" transform="scale(0.297398 0.297478)" d="M1239.29 1023.96L1242.48 1023.91L1242.67 1024.39L1241.77 1025.16C1233.61 1032.22 1229.64 1045.21 1223.32 1054.19C1219.44 1059.71 1214.24 1064.23 1210.26 1069.69C1207.11 1074.04 1204.5 1078.82 1201.48 1083.28C1197.39 1089.34 1192.73 1095.17 1188.01 1100.76C1183.02 1106.68 1177.01 1111.4 1171.62 1116.93C1162.76 1126.01 1154.45 1136.39 1144.63 1144.45C1142.97 1145.81 1141.34 1146.93 1139.17 1147.19C1144.03 1141.45 1149.93 1136.1 1155.15 1130.63C1166.45 1118.79 1177.53 1106.91 1188.11 1094.41C1207.01 1072.1 1222.47 1047.75 1239.29 1023.96Z"/><path fill="#A09B9A" fill-opacity="0.45490196" transform="scale(0.297398 0.297478)" d="M1007.05 1246.24L1008.59 1248.33C1007.96 1250.94 1002.92 1253.28 1000.53 1254.73C986.124 1263.52 969.262 1271.88 953.432 1277.78C951.872 1276.83 952.126 1276.49 951.743 1274.76C951.721 1274.66 951.718 1274.56 951.706 1274.46C970.554 1265.65 989.038 1256.67 1007.05 1246.24Z"/><path fill="#A09B9A" fill-opacity="0.40784314" transform="scale(0.297398 0.297478)" d="M647.046 1336.05C654.076 1337.13 664.609 1337.67 671.748 1337.28C674.541 1337.12 683.685 1335.23 685.73 1336.68L683.596 1337.28C685.262 1338.17 686.754 1338.58 688.574 1338.98C687.613 1339.3 686.128 1339.56 685.398 1340.24L686.234 1341.12C690.531 1341.23 694.69 1340.67 699.017 1340.89C698.659 1341.09 698.321 1341.33 697.942 1341.49C691.977 1343.98 654.025 1340.42 647.662 1337.92L647.046 1336.05Z"/><path fill="#A09B9A" fill-opacity="0.43921569" transform="scale(0.297398 0.297478)" d="M930.264 1283.89L947.986 1276.17L949.518 1277.35C949.101 1279.4 948.232 1280.21 946.511 1281.38C942.19 1284.33 936.94 1287.04 931.587 1286.58C930.24 1285.46 930.534 1285.5 930.264 1283.89Z"/><defs><linearGradient id="gradient_2" gradientUnits="userSpaceOnUse" x1="889.55505" y1="1299.7609" x2="890.65002" y2="1302.619"><stop offset="0" stop-color="#AEADAB" stop-opacity="0.40000001"/><stop offset="1" stop-color="#B2B1B1" stop-opacity="0.44313726"/></linearGradient></defs><path fill="url(#gradient_2)" transform="scale(0.297398 0.297478)" d="M874.719 1304.12L895.849 1297.01L900.128 1297.76L901.015 1298.34C899.001 1300.05 897.574 1300.1 895.014 1300.39C894.724 1300.42 894.435 1300.46 894.146 1300.49C893.972 1300.51 893.797 1300.53 893.623 1300.55C893.054 1301.45 892.476 1302.33 891.888 1303.22C891.58 1303.24 891.271 1303.26 890.963 1303.28C886.732 1303.61 883.332 1305.53 879.224 1304.91C878.934 1304.87 878.639 1304.94 878.347 1304.95L874.719 1304.12Z"/><defs><linearGradient id="gradient_3" gradientUnits="userSpaceOnUse" x1="913.85516" y1="1290.7455" x2="915.05402" y2="1293.416"><stop offset="0" stop-color="#B0AEAB" stop-opacity="0.40784314"/><stop offset="1" stop-color="#B3B2B1" stop-opacity="0.4509804"/></linearGradient></defs><path fill="url(#gradient_3)" transform="scale(0.297398 0.297478)" d="M903.977 1294.12L923.633 1286.49L922.773 1288.49L923.583 1289.55C922.883 1290.54 923.356 1290.19 922.239 1290.55C918.098 1291.9 914.36 1293.77 910.502 1295.76C909.408 1296.32 908.852 1296.31 907.656 1296.21L906.572 1295.16L905.652 1295.4L903.977 1294.12Z"/><defs><linearGradient id="gradient_4" gradientUnits="userSpaceOnUse" x1="901.52606" y1="1295.3237" x2="903.38696" y2="1298.422"><stop offset="0" stop-color="#AFADAB" stop-opacity="0.40392157"/><stop offset="1" stop-color="#B3B2B1" stop-opacity="0.43921569"/></linearGradient></defs><path fill="url(#gradient_4)" transform="scale(0.297398 0.297478)" d="M895.849 1297.01L903.977 1294.12L905.652 1295.4L906.332 1296.84L905.815 1297.77C903.846 1298 902.307 1297.9 900.339 1297.74C900.269 1297.73 900.199 1297.75 900.128 1297.76L895.849 1297.01Z"/></svg>