<?xml version="1.0" encoding="utf-8" ?><svg xmlns="http://www.w3.org/2000/svg" xmlns:xlink="http://www.w3.org/1999/xlink" width="400" height="389" viewBox="0 0 400 389"><path fill="#FD0000" transform="matrix(0.290065 0 0 0.290082 0 1.19209e-07)" d="M680.458 13.5521C709.661 13.4299 740.449 13.3458 769.303 17.8842C783.176 18.928 798.55 21.0561 812.109 24.1558C826.817 26.3883 841.283 29.9332 855.702 33.531C879.287 39.4157 901.781 45.8564 924.646 54.1385C1051.4 99.2259 1161.49 181.701 1240.37 290.666C1260.15 317.94 1277.63 346.811 1292.62 376.981C1326.76 444.992 1346.66 512.241 1357.08 587.715C1358.2 595.841 1358.61 604.058 1359.6 612.198C1359.43 617.665 1360.07 623.135 1360.24 628.597C1360.51 638.46 1361.41 648.285 1361.51 658.154C1361.69 689.469 1359.68 720.758 1355.49 751.792C1353.6 759.96 1352.67 768.44 1351.34 776.724C1349.22 789.994 1346.7 803.041 1343.11 815.998C1341.62 821.848 1339.32 828.489 1338.61 834.448C1337.74 837.36 1336.54 840.441 1336.01 843.419L1327.95 869.707C1323.17 882.722 1318.54 895.865 1313.36 908.721C1310.81 915.042 1307.49 921.227 1305.17 927.601C1302.25 933.329 1299.44 939.115 1296.75 944.955C1297.17 948.795 1294 954.057 1292.35 957.602C1277.37 989.947 1256.53 1018.75 1236.63 1048.13C1231.48 1055.72 1226.84 1064.12 1221.1 1071.26C1210.96 1083.88 1192.7 1101.71 1186.44 1116.25C1182.01 1125.11 1170.97 1133.28 1163.75 1140C1156.44 1146.8 1149.56 1154.06 1142.07 1160.66C1126.28 1174.55 1109.6 1187.5 1093.44 1200.94C1085.43 1207.61 1077.74 1214.62 1069.35 1220.83C1061.46 1226.66 1052.7 1230.91 1044.4 1236.07C1037.09 1240.6 1029.02 1247.54 1021.12 1250.78C1020.42 1251.07 1020.28 1251.06 1019.62 1251.16C1007.47 1254.2 995.262 1258.48 983.721 1263.39C978.3 1265.7 973.097 1268.74 967.543 1270.7C956.491 1274.61 944.323 1278.28 932.846 1280.57C923.934 1282.34 914.858 1283.23 905.934 1284.95L905.585 1284.23L908.912 1281.59C884.157 1289.82 851.273 1299.12 825.673 1302.98C766.062 1314.4 705.208 1317.91 644.679 1313.45C636.599 1312.86 628.2 1313.1 620.213 1311.84C598.23 1308.94 576.47 1305.15 554.584 1301.68C544.889 1297.48 529.583 1295.22 518.974 1292.53C502.411 1288.34 486.421 1283.22 470.335 1277.48C459.032 1273.44 447.555 1269.65 436.451 1265.09C379.446 1241.17 325.851 1209.83 277.053 1171.88C265.793 1163.25 255.643 1153.4 244.527 1144.64C204.175 1108.42 168.379 1067.43 137.927 1022.57C128.006 1006.78 117.787 991.05 108.686 974.767C100.802 960.66 93.8011 945.882 86.8693 931.291C84.7263 926.702 82.6531 922.082 80.6506 917.43L78.9393 914.152C76.9609 908.66 74.7269 903.266 72.5355 897.857C69.6934 886.71 64.0966 875.429 60.365 864.452C54.2851 846.566 49.5512 828.165 45.032 809.828C37.1543 777.865 32.7857 744.71 30.5834 711.898C23.8439 623.214 35.9558 534.107 66.1227 450.437C79.2725 412.712 96.1529 376.392 116.513 342.017C207.491 188.421 356.238 77.6809 529.496 34.5567C569.031 23.2563 611.232 17.4708 652.205 14.9233C661.588 14.3398 671.058 13.4127 680.458 13.5521Z"/><path fill="#AEABAD" transform="matrix(0.290065 0 0 0.290082 0 1.19209e-07)" d="M1296.75 944.955C1297.17 948.795 1294 954.057 1292.35 957.602C1277.37 989.947 1256.53 1018.75 1236.63 1048.13C1231.48 1055.72 1226.84 1064.12 1221.1 1071.26C1210.96 1083.88 1192.7 1101.71 1186.44 1116.25C1182.01 1125.11 1170.97 1133.28 1163.75 1140C1156.44 1146.8 1149.56 1154.06 1142.07 1160.66C1126.28 1174.55 1109.6 1187.5 1093.44 1200.94C1085.43 1207.61 1077.74 1214.62 1069.35 1220.83C1061.46 1226.66 1052.7 1230.91 1044.4 1236.07C1037.09 1240.6 1029.02 1247.54 1021.12 1250.78C1020.42 1251.07 1020.28 1251.06 1019.62 1251.16C1007.47 1254.2 995.262 1258.48 983.721 1263.39C978.3 1265.7 973.097 1268.74 967.543 1270.7C956.491 1274.61 944.323 1278.28 932.846 1280.57C923.934 1282.34 914.858 1283.23 905.934 1284.95L905.585 1284.23L908.912 1281.59C920.442 1276.43 933.193 1272.92 945 1268.21C968.841 1258.51 992.217 1247.69 1015.05 1235.81C1043.84 1220.61 1071.34 1203.08 1097.27 1183.39C1183.52 1119.24 1248.43 1040.91 1296.75 944.955Z"/><path fill="#EB4446" transform="matrix(0.290065 0 0 0.290082 0 1.19209e-07)" d="M680.458 13.5521C709.661 13.4299 740.449 13.3458 769.303 17.8842C783.176 18.928 798.55 21.0561 812.109 24.1558C798.131 26.4291 781.953 22.3727 768.006 20.3552C737.442 17.4261 705.723 15.038 675.069 16.7956C658.322 17.6233 641.639 18.0031 624.935 19.6875C605.437 21.6538 585.925 25.2289 566.642 28.6593C561.433 29.586 532.775 36.3438 530.518 35.6403L529.496 34.5567C569.031 23.2563 611.232 17.4708 652.205 14.9233C661.588 14.3398 671.058 13.4127 680.458 13.5521Z"/><path fill="#FEFEFE" transform="matrix(0.290065 0 0 0.290082 0 1.19209e-07)" d="M683.015 51.4988C812.806 48.4838 940.409 85.2779 1048.66 156.933C1076.16 175.719 1102.29 196.425 1126.86 218.896C1221.17 305.509 1285.97 419.475 1312.18 544.793C1318.77 577.693 1321.61 610.612 1323.29 644.071C1331 797.098 1272.17 954.351 1169.68 1067.7C1069.21 1180.31 931.672 1253.17 782.048 1273.02C757.057 1276.46 732.436 1277.32 707.282 1278.59C705.651 1278.73 704.018 1278.82 702.383 1278.89C688.095 1279.51 673.578 1278.22 659.29 1277.65C544.316 1271.98 433.104 1234.87 337.776 1170.36C309.219 1151 282.885 1129.09 257.584 1105.7C141.167 996.936 72.5728 846.502 66.8032 687.305C61.3984 547.978 104.761 411.127 189.422 300.326C199.901 286.592 210.484 272.877 222.245 260.202C244.694 235.697 268.829 212.791 294.473 191.652C392.475 113.038 511.393 64.8992 636.493 53.1983C651.777 51.756 667.634 52.0788 683.015 51.4988Z"/><path fill="#FD0000" transform="matrix(0.290065 0 0 0.290082 0 1.19209e-07)" d="M369.313 510.543C384.131 509.936 399.157 510.392 413.999 510.401C448.416 510.42 487.438 508.088 519.995 520.777C540.265 528.677 557.988 542.93 566.827 563.135C576.278 584.738 576.984 611.846 568.324 633.826C556.268 664.425 537.072 672.489 509.23 684.775C511.816 686.171 514.42 687.564 516.916 689.115C525.462 694.426 533.193 702.017 539.065 710.161C552.043 728.159 560.415 750.22 569.297 770.377C577.684 789.411 587.462 809.035 592.22 829.345C590.219 831.377 588.307 833.202 585.668 834.376C574.016 839.562 539.302 839.599 527.56 834.544C520.214 831.381 517.891 824.726 515.089 817.87C503.743 791.274 486.2 737.512 468.08 717.48C453.789 701.681 431.976 703.672 412.497 702.799C411.679 731.564 412.287 760.525 412.312 789.308C412.322 800.856 413.015 812.898 412.186 824.396C412.052 826.251 411.959 828.082 410.909 829.668C407.978 834.094 400.363 835.499 395.447 836.288C383.895 838.143 357.347 839.36 347.627 831.735C345.153 829.795 345.026 827.846 344.702 824.96C343.043 810.149 344.181 794.154 344.312 779.239C344.553 753.919 344.667 728.598 344.655 703.276L344.444 599.757C344.309 578.983 343.283 557.888 344.48 537.154C344.857 530.614 344.762 523.12 349.231 517.899C354.334 511.936 362.001 511.065 369.313 510.543Z"/><path fill="#FEFEFE" transform="matrix(0.290065 0 0 0.290082 0 1.19209e-07)" d="M412.503 560.828C422.442 560.646 432.428 561.071 442.357 561.506C459.651 562.262 478.379 562.022 491.854 574.743C500.54 582.943 503.992 595.02 504.232 606.674C504.504 619.841 499.751 630.327 490.8 639.767C470.966 657.339 437.103 652.813 412.571 653.009C411.86 641.167 412.246 629.07 412.253 617.204C412.216 598.411 412.299 579.619 412.503 560.828Z"/><path fill="#FD0000" transform="matrix(0.290065 0 0 0.290082 0 1.19209e-07)" d="M726.354 589.336C752.557 586.889 782.095 593.365 803.395 609.115C825.137 625.192 836.259 651.139 840.186 677.287C842.168 690.491 845.002 713.789 836.252 724.912C834.072 727.682 831.384 729.499 827.937 730.254C816.591 732.739 802.96 731.39 791.327 731.36L722.437 731.2C709.586 731.18 696.257 730.42 683.481 731.688L682.357 731.805C682.638 740.861 684.015 751.05 686.771 759.677C699.94 800.907 753.936 796.596 787.333 788.756C798.587 786.113 809.898 780.567 821.255 779.09C823.188 778.838 824.322 779.307 826.02 780.185C829.435 784.093 830.544 788.324 831.207 793.371C832.269 801.446 831.83 815.213 826.49 821.775C816.541 834.003 776.355 838.976 760.97 840.235C723.395 843.31 681.57 840.47 651.696 814.924C626.312 793.219 619.505 761.44 617.013 729.644C614.22 693.994 622.867 652.603 646.657 625.116C667.239 601.335 695.8 591.578 726.354 589.336Z"/><path fill="#FEFEFE" transform="matrix(0.290065 0 0 0.290082 0 1.19209e-07)" d="M724.821 634.36C725.857 634.31 726.894 634.264 727.931 634.225C740.887 633.74 753.815 635.352 763.588 644.736C775.435 656.111 778.283 674.492 778.437 690.11L737.644 690.168L682.228 690.137C683.777 676.858 686.902 662.154 695.299 651.396C702.751 641.851 712.833 635.91 724.821 634.36Z"/><path fill="#FD0000" transform="matrix(0.290065 0 0 0.290082 0 1.19209e-07)" d="M994.215 589.334C1011.81 588.454 1032.46 593.202 1048.16 601.116C1055.8 604.964 1062.96 609.759 1065.71 618.279C1069.4 629.699 1069.99 647.683 1064.1 658.396C1062.85 660.673 1061.57 662.457 1059 663.226C1051.52 662.493 1043.08 655.01 1036.61 651.276C1021.39 642.493 1003.77 637.33 986.416 642.209C974.127 645.664 964.774 653.067 958.6 664.201C945.602 687.639 945.198 726.044 952.564 751.299C956.433 764.566 963.522 776.207 976.008 782.86C997.23 794.168 1021.68 787.507 1040.94 775.557C1046.42 772.158 1053.31 765.971 1059.59 764.365C1061.14 763.968 1062.45 763.909 1063.77 764.967C1068.31 768.601 1068.6 779.75 1068.98 785.028C1070.11 795.348 1069.8 808.947 1062.96 817.355C1051.59 831.316 1021.43 839.127 1004.23 840.504C973.339 842.976 941.438 837.542 917.341 816.675C892.798 795.422 884.487 762.273 882.317 731.141C879.729 694.03 887.57 651.817 912.755 623.273C933.738 599.491 963.67 591.222 994.215 589.334Z"/><path fill="#FEFEFE" fill-opacity="0.25882354" transform="matrix(0.290065 0 0 0.290082 0 1.19209e-07)" d="M1360.24 628.597L1361.7 629.133C1362.37 631.787 1362.47 634.53 1362.68 637.254C1362.68 634.233 1362.43 630.915 1363.24 627.995C1364.02 625.198 1362.43 617.569 1363.64 615.76C1366.86 623.443 1367.28 631.544 1366 639.711C1365.58 642.342 1364.74 645.213 1365.11 647.869C1366.26 646.49 1367.07 645.022 1367.93 643.456C1367.97 645.096 1367.97 646.616 1367.72 648.241C1367.12 652.319 1368.68 669.759 1370.06 673.629C1370.05 673.808 1370.03 673.986 1370.01 674.165C1369.65 679.07 1371.27 683.884 1371.2 688.815C1371.04 699.745 1370 710.671 1369.39 721.579C1369.03 728.058 1369.19 734.486 1368.44 740.951C1367.41 749.792 1365.77 758.558 1364.63 767.386C1362.96 780.253 1361.76 793.337 1359.08 806.047C1356.03 820.545 1352.55 835.272 1348.57 849.542C1347.11 854.754 1345.16 859.852 1343.71 865.036C1342.78 868.382 1343.3 872.013 1342.27 875.38C1339.71 883.75 1336.62 892.861 1333.35 900.979C1331.24 906.217 1328.49 911.238 1326.56 916.541C1324.45 922.371 1323.33 928.546 1321.24 934.378C1319.49 939.252 1316.56 943.931 1314.45 948.698C1311.07 956.344 1308.24 964.188 1304.49 971.671C1298.2 984.208 1290.6 996.273 1283.56 1008.41C1279.26 1015.82 1275.38 1023.75 1270.83 1030.98C1269.37 1033.3 1266.94 1034.76 1265.51 1037.05C1237.19 1083.32 1202.36 1125.27 1162.08 1161.61C1140.37 1180.88 1117.62 1200 1093.76 1216.61C1087.3 1221.11 1080.34 1224.81 1073.82 1229.18C1066.74 1233.92 1060.67 1239.96 1053.34 1244.39C1020.75 1264.09 986.608 1278.82 950.985 1292.09C929.976 1299.91 908.823 1307.88 887.186 1313.8C870.816 1318.27 854.095 1321.32 837.51 1324.79C833.523 1325.62 829.718 1327.63 825.837 1328.37C820.967 1329.3 815.883 1329.54 810.97 1330.3C784.154 1334.43 757.131 1337.87 729.963 1338.65C712.916 1339.14 695.367 1338.03 678.315 1337.39C672.756 1337.18 667.183 1337.66 661.627 1337.35C654.736 1336.96 647.88 1335.99 640.993 1335.52C635.701 1335.15 629.843 1335.44 624.673 1334.57C622.112 1334.14 619.656 1333.14 617.101 1332.64C610.528 1331.33 603.81 1330.24 597.182 1329.22C591.589 1328.36 585.802 1328.51 580.265 1327.5C566.339 1324.96 552.792 1320.88 538.984 1317.92C529.303 1315.84 519.48 1314.52 509.91 1311.78C486.708 1305.13 460.944 1294.84 438.452 1285.98C435.896 1284.97 433.03 1284.87 430.427 1283.91C426.319 1282.41 422.414 1280.16 418.423 1278.36C409.063 1274.15 399.769 1269.92 390.515 1265.48C380.808 1260.82 370.526 1256.63 361.109 1251.43C356.656 1248.97 352.816 1245.53 348.508 1242.85C313.607 1221.12 279.99 1197.94 249 1170.8C243.272 1165.78 238.122 1160.09 232.636 1154.81C225.211 1147.67 217.225 1141.05 209.936 1133.78C203.875 1127.73 198.359 1121.15 192.433 1114.98C188.058 1110.42 182.94 1106.5 178.753 1101.78C176.624 1099.38 174.909 1096.61 172.885 1094.11C160.862 1079.28 150.189 1064.02 139.622 1048.14C133.091 1038.32 126.01 1028.81 119.836 1018.76C100.649 986.852 83.9714 953.502 69.9547 919.011C65.3821 907.815 60.751 896.848 57.3387 885.204C55.8833 880.237 55.0765 875.128 53.831 870.113L54.4284 870.304L54.9922 868.77C55.0264 869.013 55.0573 869.256 55.0947 869.499L55.251 870.451C55.2924 870.717 55.3039 870.989 55.3671 871.252C56.004 873.895 58.1992 876.175 59.0115 878.959C59.3568 880.143 59.9766 881.188 60.5571 882.269C60.3123 884.737 58.6696 885.531 58.8394 887.867L61.057 886.187C65.288 889.129 66.2924 904.795 69.6733 908.632L69.7046 908.105C71.7429 913.053 73.984 918.087 76.6833 922.711C76.431 926.581 77.8375 928.835 80.1852 931.793C82.4887 934.695 83.5678 938.212 84.5125 941.759L85.6591 942.265C86.9584 941.136 87.0889 940.767 87.6784 939.13C86.2266 935.853 85.6969 934.786 86.8693 931.291C93.8011 945.882 100.802 960.66 108.686 974.767C117.787 991.05 128.006 1006.78 137.927 1022.57L136.453 1023.72C136.779 1027.47 141.427 1031.74 143.242 1035.15C144.566 1037.65 144.429 1040.42 145.759 1042.9C149.964 1050.76 156.344 1058.31 161.607 1065.56C168.001 1074.37 173.197 1083.48 180.464 1091.76C193.646 1106.79 209.946 1118.99 223.986 1133.2C230.883 1140.18 237.057 1147.84 243.843 1154.93C253.065 1164.57 262.952 1173.27 273.171 1181.83C300.199 1204.46 338.106 1230.86 369.066 1247.36C380.796 1253.61 392.963 1258.34 404.942 1263.97C412.539 1267.53 422.281 1274.11 430.577 1275.22C435.906 1280.01 446.171 1281.61 452.846 1284.18C456.879 1285.72 460.706 1287.74 464.758 1289.26C472.939 1292.33 481.31 1294.87 489.566 1297.72C492.488 1298.74 495.243 1300.19 498.228 1301.01C503.14 1302.37 508.331 1302.9 513.307 1304.04C529.071 1307.64 545.013 1311.45 560.903 1314.41C569.228 1315.96 577.79 1316.73 586.052 1318.37C592.869 1320.2 600.677 1320.86 607.698 1321.93C623.687 1324.36 639.786 1327.08 655.956 1327.88C665.018 1328.32 679.018 1327.2 687.392 1328.77C700.831 1331.29 716.636 1329.86 730.37 1329.72C825.684 1328.76 919.269 1302 1005.83 1263.18C1029.41 1252.6 1050.25 1238.81 1071.45 1224.26C1079.06 1219.03 1087.03 1214.09 1094.39 1208.52C1099.55 1204.61 1104.26 1200.14 1109.37 1196.18C1112.69 1193.61 1116.37 1191.51 1119.72 1188.92C1127.98 1182.53 1135.47 1175.36 1143.49 1168.74C1151.6 1162.04 1159.86 1155.64 1167.49 1148.33C1176.82 1139.38 1184.88 1129.62 1193.73 1120.34C1202.91 1110.71 1212.67 1101.39 1220.9 1090.92C1233.88 1074.42 1244.78 1056.94 1256.33 1039.48C1260.99 1032.44 1266.25 1025.8 1270.85 1018.72C1276.48 1010.05 1281.36 1000.72 1286.42 991.694C1292.65 980.588 1299.14 969.498 1304.52 957.956C1310.68 944.579 1316.39 931.002 1321.64 917.246C1323.89 911.197 1325.62 904.962 1327.91 898.934C1328 898.752 1328.1 898.575 1328.18 898.39C1335.72 880.958 1339.21 860.617 1343.55 842.155C1348.66 820.354 1362.89 772.67 1355.49 751.792C1359.68 720.758 1361.69 689.469 1361.51 658.154C1361.41 648.285 1360.51 638.46 1360.24 628.597Z"/><path fill="#C8C7C8" fill-opacity="0.60000002" transform="matrix(0.290065 0 0 0.290082 0 1.19209e-07)" d="M1336.01 843.419C1336.54 840.441 1337.74 837.36 1338.61 834.448C1339.03 837.901 1338.96 841.622 1340.27 844.859C1339.7 845.834 1339.14 846.86 1338.8 847.941C1335.78 857.432 1334.7 870.054 1332.06 880.188C1330.65 885.605 1327.3 893.47 1327.91 898.934C1325.62 904.962 1323.89 911.197 1321.64 917.246C1316.39 931.002 1310.68 944.579 1304.52 957.956C1299.14 969.498 1292.65 980.588 1286.42 991.694C1281.36 1000.72 1276.48 1010.05 1270.85 1018.72C1266.25 1025.8 1260.99 1032.44 1256.33 1039.48C1244.78 1056.94 1233.88 1074.42 1220.9 1090.92C1212.67 1101.39 1202.91 1110.71 1193.73 1120.34C1184.88 1129.62 1176.82 1139.38 1167.49 1148.33C1159.86 1155.64 1151.6 1162.04 1143.49 1168.74C1135.47 1175.36 1127.98 1182.53 1119.72 1188.92C1116.37 1191.51 1112.69 1193.61 1109.37 1196.18C1104.26 1200.14 1099.55 1204.61 1094.39 1208.52C1087.03 1214.09 1079.06 1219.03 1071.45 1224.26C1050.25 1238.81 1029.41 1252.6 1005.83 1263.18C919.269 1302 825.684 1328.76 730.37 1329.72C716.636 1329.86 700.831 1331.29 687.392 1328.77C679.018 1327.2 665.018 1328.32 655.956 1327.88C639.786 1327.08 623.687 1324.36 607.698 1321.93C600.677 1320.86 592.869 1320.2 586.052 1318.37C592.348 1316.97 601.122 1318.98 607.665 1319.52C608.567 1319.59 608.184 1319.61 609.154 1319.23C620.293 1320.65 631.494 1322.32 642.687 1323.19C681.548 1326.2 720.886 1325.13 759.76 1323.44C765.821 1325.33 810.263 1320.8 819.324 1319.22C822.655 1318.64 826.008 1317.43 829.376 1316.76C838.48 1314.93 847.696 1313.44 856.734 1311.32C861.951 1310.09 867.309 1308.82 872.411 1307.18C874.496 1306.51 876.809 1305.23 878.939 1304.85C880.536 1304.56 882.193 1305.45 883.676 1304.96C890.701 1302.67 897.969 1301.01 904.931 1298.65C934.804 1288.54 964.602 1278.18 993.376 1265.24C1002.23 1261.25 1012.79 1258.47 1019.62 1251.16C1020.28 1251.06 1020.42 1251.07 1021.12 1250.78C1029.02 1247.54 1037.09 1240.6 1044.4 1236.07C1052.7 1230.91 1061.46 1226.66 1069.35 1220.83C1077.74 1214.62 1085.43 1207.61 1093.44 1200.94C1109.6 1187.5 1126.28 1174.55 1142.07 1160.66C1149.56 1154.06 1156.44 1146.8 1163.75 1140C1170.97 1133.28 1182.01 1125.11 1186.44 1116.25C1197.25 1108.14 1208.84 1099.19 1217.96 1089.2C1229.46 1076.61 1238.46 1061.49 1247.99 1047.39C1261.73 1027.05 1275.78 1007.32 1287.41 985.664C1296.22 971.369 1326.62 908.411 1326.74 894.058C1329.78 882.478 1337.09 853.917 1336.01 843.419Z"/><path fill="#979697" fill-opacity="0.71372551" transform="matrix(0.290065 0 0 0.290082 0 1.19209e-07)" d="M244.527 1144.64C255.643 1153.4 265.793 1163.25 277.053 1171.88C325.851 1209.83 379.446 1241.17 436.451 1265.09C447.555 1269.65 459.032 1273.44 470.335 1277.48C486.421 1283.22 502.411 1288.34 518.974 1292.53C529.583 1295.22 544.889 1297.48 554.584 1301.68C557.925 1307.37 569.332 1306.24 575.55 1308.9L574.96 1309.23C569.769 1309.35 564.103 1309.54 559.166 1307.67C558.961 1307.59 558.761 1307.5 558.556 1307.43C558.259 1307.32 557.959 1307.21 557.662 1307.1C555.874 1306.44 550.164 1309.48 547.156 1309.13C532.372 1307.43 517.438 1302.18 503.032 1298.67C495.993 1296.39 488.981 1294.03 481.996 1291.59C404.893 1264.28 331.484 1227.66 270.57 1172.23C261.508 1163.98 249.937 1155.99 244.527 1144.64Z"/><defs><linearGradient id="gradient_0" gradientUnits="userSpaceOnUse" x1="732.67102" y1="1290.8939" x2="737.57507" y2="1324.7625"><stop offset="0" stop-color="#929293" stop-opacity="0.76078433"/><stop offset="1" stop-color="#A09E9E" stop-opacity="0.90196079"/></linearGradient></defs><path fill="url(#gradient_0)" transform="matrix(0.290065 0 0 0.290082 0 1.19209e-07)" d="M825.673 1302.98C826.097 1303.08 826.518 1303.2 826.945 1303.29C833.612 1304.72 860.584 1301.05 868.103 1299.63C870.974 1299.09 872.546 1296.65 875.686 1296.26L874.803 1297.57C877.371 1298.26 879.685 1297.34 882.194 1297.01C882.54 1296.96 882.892 1297.05 883.241 1297.07C882.626 1297.71 882.152 1298.27 881.306 1298.62C877.498 1300.18 872.727 1300.79 868.707 1301.8C856.035 1304.99 843.301 1307.93 830.513 1310.63C825.46 1311.74 820.671 1313.84 815.552 1314.78C805.913 1316.55 795.781 1316.97 786.332 1319.62C780.96 1321.13 762.627 1320.11 759.76 1323.44C720.886 1325.13 681.548 1326.2 642.687 1323.19C631.494 1322.32 620.293 1320.65 609.154 1319.23C604.841 1314.96 593.428 1315.25 587.708 1312.53L587.751 1311.78C598.254 1309.33 609.481 1312.48 620.213 1311.84C628.2 1313.1 636.599 1312.86 644.679 1313.45C705.208 1317.91 766.062 1314.4 825.673 1302.98Z"/><path fill="#AEABAD" fill-opacity="0.5411765" transform="matrix(0.290065 0 0 0.290082 0 1.19209e-07)" d="M137.927 1022.57C168.379 1067.43 204.175 1108.42 244.527 1144.64C249.937 1155.99 261.508 1163.98 270.57 1172.23C331.484 1227.66 404.893 1264.28 481.996 1291.59C488.981 1294.03 495.993 1296.39 503.032 1298.67C493.145 1299.2 442.863 1279.56 430.577 1275.22C422.281 1274.11 412.539 1267.53 404.942 1263.97C392.963 1258.34 380.796 1253.61 369.066 1247.36C338.106 1230.86 300.199 1204.46 273.171 1181.83C262.952 1173.27 253.065 1164.57 243.843 1154.93C237.057 1147.84 230.883 1140.18 223.986 1133.2C209.946 1118.99 193.646 1106.79 180.464 1091.76C173.197 1083.48 168.001 1074.37 161.607 1065.56C156.344 1058.31 149.964 1050.76 145.759 1042.9C144.429 1040.42 144.566 1037.65 143.242 1035.15C141.427 1031.74 136.779 1027.47 136.453 1023.72L137.927 1022.57Z"/><path fill="#979697" fill-opacity="0.84313726" transform="matrix(0.290065 0 0 0.290082 0 1.19209e-07)" d="M908.912 1281.59L905.585 1284.23L905.934 1284.95C914.858 1283.23 923.934 1282.34 932.846 1280.57C944.323 1278.28 956.491 1274.61 967.543 1270.7C973.097 1268.74 978.3 1265.7 983.721 1263.39C995.262 1258.48 1007.47 1254.2 1019.62 1251.16C1012.79 1258.47 1002.23 1261.25 993.376 1265.24C964.602 1278.18 934.804 1288.54 904.931 1298.65C897.969 1301.01 890.701 1302.67 883.676 1304.96C882.193 1305.45 880.536 1304.56 878.939 1304.85C876.809 1305.23 874.496 1306.51 872.411 1307.18C867.309 1308.82 861.951 1310.09 856.734 1311.32C847.696 1313.44 838.48 1314.93 829.376 1316.76C826.008 1317.43 822.655 1318.64 819.324 1319.22C810.263 1320.8 765.821 1325.33 759.76 1323.44C762.627 1320.11 780.96 1321.13 786.332 1319.62C795.781 1316.97 805.913 1316.55 815.552 1314.78C820.671 1313.84 825.46 1311.74 830.513 1310.63C843.301 1307.93 856.035 1304.99 868.707 1301.8C872.727 1300.79 877.498 1300.18 881.306 1298.62C882.152 1298.27 882.626 1297.71 883.241 1297.07C882.892 1297.05 882.54 1296.96 882.194 1297.01C879.685 1297.34 877.371 1298.26 874.803 1297.57L875.686 1296.26C872.546 1296.65 870.974 1299.09 868.103 1299.63C860.584 1301.05 833.612 1304.72 826.945 1303.29C826.518 1303.2 826.097 1303.08 825.673 1302.98C851.273 1299.12 884.157 1289.82 908.912 1281.59Z"/><path fill="#C8C7C8" fill-opacity="0.74117649" transform="matrix(0.290065 0 0 0.290082 0 1.19209e-07)" d="M1305.17 927.601C1305.35 931.39 1303.22 935.257 1301.93 938.78C1298.57 947.942 1288.42 971.708 1287.11 979.994C1286.82 981.865 1287.14 983.807 1287.41 985.664C1275.78 1007.32 1261.73 1027.05 1247.99 1047.39C1238.46 1061.49 1229.46 1076.61 1217.96 1089.2C1208.84 1099.19 1197.25 1108.14 1186.44 1116.25C1192.7 1101.71 1210.96 1083.88 1221.1 1071.26C1226.84 1064.12 1231.48 1055.72 1236.63 1048.13C1256.53 1018.75 1277.37 989.947 1292.35 957.602C1294 954.057 1297.17 948.795 1296.75 944.955C1299.44 939.115 1302.25 933.329 1305.17 927.601Z"/><defs><linearGradient id="gradient_1" gradientUnits="userSpaceOnUse" x1="1310.8234" y1="933.67139" x2="1305.4634" y2="931.58722"><stop offset="0" stop-color="#CDCDCD" stop-opacity="0.65490198"/><stop offset="1" stop-color="#C2C2C5" stop-opacity="0.72156864"/></linearGradient></defs><path fill="url(#gradient_1)" transform="matrix(0.290065 0 0 0.290082 0 1.19209e-07)" d="M1327.95 869.707C1328.62 876.7 1322.5 888.216 1326.74 894.058C1326.62 908.411 1296.22 971.369 1287.41 985.664C1287.14 983.807 1286.82 981.865 1287.11 979.994C1288.42 971.708 1298.57 947.942 1301.93 938.78C1303.22 935.257 1305.35 931.39 1305.17 927.601C1307.49 921.227 1310.81 915.042 1313.36 908.721C1318.54 895.865 1323.17 882.722 1327.95 869.707Z"/><path fill="#979697" fill-opacity="0.79607844" transform="matrix(0.290065 0 0 0.290082 0 1.19209e-07)" d="M430.577 1275.22C442.863 1279.56 493.145 1299.2 503.032 1298.67C517.438 1302.18 532.372 1307.43 547.156 1309.13C550.164 1309.48 555.874 1306.44 557.662 1307.1C557.959 1307.21 558.259 1307.32 558.556 1307.43C558.761 1307.5 558.961 1307.59 559.166 1307.67C564.103 1309.54 569.769 1309.35 574.96 1309.23L575.55 1308.9C569.332 1306.24 557.925 1307.37 554.584 1301.68C576.47 1305.15 598.23 1308.94 620.213 1311.84C609.481 1312.48 598.254 1309.33 587.751 1311.78L587.708 1312.53C593.428 1315.25 604.841 1314.96 609.154 1319.23C608.184 1319.61 608.567 1319.59 607.665 1319.52C601.122 1318.98 592.348 1316.97 586.052 1318.37C577.79 1316.73 569.228 1315.96 560.903 1314.41C545.013 1311.45 529.071 1307.64 513.307 1304.04C508.331 1302.9 503.14 1302.37 498.228 1301.01C495.243 1300.19 492.488 1298.74 489.566 1297.72C481.31 1294.87 472.939 1292.33 464.758 1289.26C460.706 1287.74 456.879 1285.72 452.846 1284.18C446.171 1281.61 435.906 1280.01 430.577 1275.22Z"/><path fill="#C8C7C8" fill-opacity="0.5529412" transform="matrix(0.290065 0 0 0.290082 0 1.19209e-07)" d="M1355.49 751.792C1362.89 772.67 1348.66 820.354 1343.55 842.155C1339.21 860.617 1335.72 880.958 1328.18 898.39C1328.1 898.575 1328 898.752 1327.91 898.934C1327.3 893.47 1330.65 885.605 1332.06 880.188C1334.7 870.054 1335.78 857.432 1338.8 847.941C1339.14 846.86 1339.7 845.834 1340.27 844.859C1339.43 834.239 1348.69 827.555 1343.11 815.998C1346.7 803.041 1349.22 789.994 1351.34 776.724C1352.67 768.44 1353.6 759.96 1355.49 751.792Z"/><path fill="#FEFEFE" fill-opacity="0.16470589" transform="matrix(0.290065 0 0 0.290082 0 1.19209e-07)" d="M1359.6 612.198C1359.72 611.793 1359.85 611.39 1359.96 610.983C1361.9 604.021 1359.5 596.79 1360.13 589.893C1360.28 588.239 1361.57 587.773 1362 586.401C1362.36 585.273 1362.25 583.416 1362.36 582.192C1365.85 597.642 1368.57 613.664 1369.47 629.506C1369.94 637.666 1369.71 645.865 1369.94 654.034C1370.13 660.532 1371.04 667.172 1370.06 673.629C1368.68 669.759 1367.12 652.319 1367.72 648.241C1367.97 646.616 1367.97 645.096 1367.93 643.456C1367.07 645.022 1366.26 646.49 1365.11 647.869C1364.74 645.213 1365.58 642.342 1366 639.711C1367.28 631.544 1366.86 623.443 1363.64 615.76C1362.43 617.569 1364.02 625.198 1363.24 627.995C1362.43 630.915 1362.68 634.233 1362.68 637.254C1362.47 634.53 1362.37 631.787 1361.7 629.133L1360.24 628.597C1360.07 623.135 1359.43 617.665 1359.6 612.198Z"/><path fill="#C8C7C8" fill-opacity="0.65882355" transform="matrix(0.290065 0 0 0.290082 0 1.19209e-07)" d="M1336.01 843.419C1337.09 853.917 1329.78 882.478 1326.74 894.058C1322.5 888.216 1328.62 876.7 1327.95 869.707L1336.01 843.419Z"/><path fill="#C8C7C8" fill-opacity="0.22745098" transform="matrix(0.290065 0 0 0.290082 0 1.19209e-07)" d="M80.6506 917.43C82.6531 922.082 84.7263 926.702 86.8693 931.291C85.6969 934.786 86.2266 935.853 87.6784 939.13C87.0889 940.767 86.9584 941.136 85.6591 942.265L84.5125 941.759C83.5678 938.212 82.4887 934.695 80.1852 931.793C77.8375 928.835 76.431 926.581 76.6833 922.711C78.3074 924.952 79.1245 927.768 80.7024 930.141C81.3207 929.135 79.9031 922.012 79.8244 920.255L79.7956 919.492C78.7226 919.124 79.12 919.172 78.0782 919.123C77.8501 919.112 77.6215 919.113 77.3932 919.107L77.8746 918.136L80.6506 917.43Z"/><path fill="#C8C7C8" fill-opacity="0.58039218" transform="matrix(0.290065 0 0 0.290082 0 1.19209e-07)" d="M1343.11 815.998C1348.69 827.555 1339.43 834.239 1340.27 844.859C1338.96 841.622 1339.03 837.901 1338.61 834.448C1339.32 828.489 1341.62 821.848 1343.11 815.998Z"/><path fill="#C8C7C8" fill-opacity="0.13725491" transform="matrix(0.290065 0 0 0.290082 0 1.19209e-07)" d="M72.5355 897.857C74.7269 903.266 76.9609 908.66 78.9393 914.152C78.1128 913.725 77.6329 913.434 76.6704 913.478C76.4665 913.487 76.2652 913.527 76.0625 913.551C75.4311 912.951 74.7901 912.365 74.2618 911.668C71.4286 907.927 71.8326 902.226 72.5355 897.857Z"/></svg>