<?xml version="1.0" encoding="utf-8" ?><svg xmlns="http://www.w3.org/2000/svg" xmlns:xlink="http://www.w3.org/1999/xlink" width="400" height="393" viewBox="0 0 400 393"><path fill="#069AB6" transform="matrix(0.28715 0 0 0.287281 0 -2.38419e-07)" d="M53.9272 499.467C101.559 328.533 215.841 183.894 371.111 98.0282C488.338 33.7297 622.109 5.94893 755.24 18.2541C798.483 22.3336 840.786 31.6055 882.495 43.4352C932.28 57.5555 980.526 79.3168 1025.09 105.502C1129.36 165.745 1215.2 253.33 1273.33 358.8C1286.48 382.374 1297.84 407.843 1307.77 432.932C1348.64 536.215 1360.33 638.943 1349.92 749.156C1347.29 757.812 1346.99 770.247 1345.5 779.574C1342.53 798.218 1338.76 816.728 1334.22 835.054C1327.34 862.472 1318.82 889.451 1308.7 915.844C1304.87 925.977 1299.45 935.89 1296.06 946.098L1295.72 946.677C1291.72 953.548 1288.61 961.126 1285.12 968.289C1279.62 979.553 1273.76 990.787 1267.51 1001.65C1259.55 1015.48 1251.08 1029.35 1242.03 1042.49C1234.72 1053.09 1226.84 1063.33 1219.72 1074.05L1219.04 1074.73C1214.99 1078.91 1211.55 1084.21 1207.92 1088.79C1200.99 1097.57 1193.74 1106.31 1186.17 1114.56C1142 1162.65 1097.5 1200.89 1042.29 1235.9C1029.68 1243.43 1017.1 1251.16 1004.13 1258.06C953.206 1285.14 898.997 1305.52 842.849 1318.71C812.819 1326.09 781.756 1330.67 750.967 1333.39C739.71 1334.39 728.048 1333.86 716.89 1335.31C708.068 1333.98 691.742 1335.35 682.014 1335.3C665.277 1335.21 648.496 1334.09 631.811 1332.8C551.814 1326.64 476.879 1303.4 404.155 1270.59C382.696 1260.22 362.472 1248.44 342.015 1236.24C334.974 1230.59 325.976 1226.02 318.356 1220.97C309.14 1214.19 299.621 1207.9 290.565 1200.88C244.315 1165.41 202.889 1124.05 167.338 1077.86C158.567 1066.42 150.059 1054.78 141.821 1042.95L136.767 1034.82L129.629 1023.48C126.967 1017.84 122.817 1012.08 119.58 1006.7C111.761 993.274 104.359 979.609 97.3812 965.727L83.4421 936.022C76.9378 919.476 70.2507 903.021 64.5949 886.155C49.0725 839.072 38.5763 790.479 33.2818 741.187C31.4564 722.967 32.5256 704.574 30.7804 686.426L30.6955 685.605C31.3435 679.275 30.7092 672.426 30.8643 666.014C31.3369 646.476 31.5567 626.974 33.738 607.539C37.6176 570.625 44.335 535.287 53.9272 499.467Z"/><path fill="white" transform="matrix(0.28715 0 0 0.287281 0 -2.38419e-07)" d="M674.611 51.6676C1019.3 42.0902 1306.43 313.915 1315.78 658.656C1325.12 1003.4 1053.13 1290.38 708.425 1299.48C364.051 1308.58 77.4425 1036.88 68.1096 692.474C58.7767 348.064 330.25 61.2358 674.611 51.6676Z"/><path fill="#069AB6" transform="matrix(0.28715 0 0 0.287281 0 -2.38419e-07)" d="M667.421 322.732C676.962 321.906 687.24 323.278 696.768 323.979C742.729 327.36 787.421 338.518 823.423 368.929C858.163 398.274 873.754 441.18 877.431 485.371C883.774 561.62 851.903 635.828 778.8 667.47C771.631 670.537 764.224 673.016 756.654 674.882C752.55 675.87 748.16 676.41 744.155 677.692C742.342 678.273 741.224 678.599 740.006 680.041C742.972 683.113 764.415 685.582 770.068 686.794C816.141 696.667 861.119 726.137 886.53 765.978C914.022 809.081 917.428 861.243 906.445 910.202C894.839 962.129 862.717 1007.15 817.393 1035.02C800.104 1045.88 780.986 1053.4 761.526 1059.35C697.217 1079.02 628.395 1078.53 563.126 1063.66C537.179 1057.75 475.309 1039.74 461.492 1016.81C452.433 1001.77 452.112 969.01 456.358 952.483C457.541 947.876 459.61 942.063 464.074 939.664C467.722 937.703 471.821 938.883 475.46 940.271C488.928 945.409 501.724 954.021 514.831 960.213C539.037 971.65 564.415 980.253 590.139 987.55C624.603 995.642 663.007 997.871 698.063 992.036C734.003 986.054 769.251 969.772 790.773 939.368C811.401 910.228 817.267 874.92 811.159 840.119C805.907 810.202 790.999 786.057 767.026 767.458C738.418 745.262 701.006 733.829 665.368 729.903C639.204 727.021 612.548 727.928 586.267 728.183C575.483 728.287 563.391 729.307 552.74 727.944C548.4 727.388 544.406 725.928 540.862 723.338C533.504 717.961 530.479 709.555 529.176 700.863C527.272 688.159 527.062 670.217 535.328 659.518C538.459 655.446 542.975 652.664 548.02 651.7C558.582 649.58 571.375 651.057 582.222 651.111C604.083 651.22 626.038 651.409 647.786 648.79C686.471 644.133 724.305 627.697 748.641 596.377C770.245 568.574 778.529 530.254 774.029 495.667C770.485 468.432 757.204 442.011 735.046 425.279C703.437 401.409 655.736 397.339 617.834 405.201C590.071 410.96 560.851 423.308 536.196 437.251C526.825 442.551 497.976 462.609 489.595 463.395C486.869 463.651 484.072 462.564 482.008 460.817C475.856 455.612 475.039 445.064 474.49 437.542C473.212 420.015 473.412 399.04 485.564 385.12C508.168 359.227 566.883 337.51 600.41 330.581C622.711 325.972 644.761 324.218 667.421 322.732Z"/><path fill="white" fill-opacity="0.18431373" transform="matrix(0.28715 0 0 0.287281 0 -2.38419e-07)" d="M1349.92 749.156L1350.5 750.199C1352.34 745.033 1351.78 727.499 1354.02 724.811C1354.47 726.667 1354.86 728.521 1355.58 730.296C1355.87 725.355 1353.87 721.037 1353.76 716.191C1353.67 712.492 1355.39 671.65 1355.47 671.583C1356.29 670.845 1357.18 670.241 1358.09 669.612C1360.95 663.244 1365.11 656.686 1366.78 649.951C1367.03 648.949 1366.87 649.352 1367.68 648.499C1368.24 655.436 1371.48 673.245 1369.74 678.875C1369.45 679.805 1367.85 681.053 1367.72 681.938C1367.42 684.001 1369.75 684.311 1369.8 685.457C1369.84 686.486 1367.4 693.742 1367.21 696.839C1366.5 708.152 1367.35 719.346 1367.16 730.631C1366.99 741.139 1365.02 751.901 1364.2 762.409C1363.72 768.481 1364.29 774.867 1363.53 780.838C1363.29 782.803 1362.77 783.895 1361.98 785.64C1361.36 786.999 1361.48 788.76 1361.46 790.232C1359.9 789.92 1359.93 790.026 1359.05 788.719C1359.01 770.609 1360.82 752.15 1361.6 734.016C1361.78 729.855 1363.03 723.748 1361.97 719.814L1360.96 720.55C1359.63 731.883 1357.81 743.721 1357.35 755.096C1356.67 771.897 1357.36 789.173 1354.44 805.784C1351.95 819.921 1348.77 833.889 1345.62 847.886C1344.08 854.707 1342.9 861.517 1341 868.261C1338.13 878.433 1334.42 888.318 1331.12 898.348C1329.26 903.99 1327.85 909.726 1325.75 915.294C1318.74 933.855 1310.02 952.121 1301.67 970.123C1291.89 991.19 1281.34 1013.87 1269.67 1033.87C1258.68 1052.71 1246.15 1069.55 1233.14 1086.93C1224.72 1098.18 1216.79 1109.82 1207.8 1120.66C1178.74 1155.08 1146.32 1186.51 1111.03 1214.5C1080.8 1238.31 1039.06 1261.73 1004.73 1279.32C996.139 1283.73 987.15 1287.51 978.359 1291.5C974.617 1293.2 970.541 1294.4 967.194 1296.79C958.153 1299.06 941.564 1309.28 933.707 1309.48C933.339 1309.49 932.976 1309.4 932.611 1309.36L932.15 1309.67C935.39 1306.98 940.091 1305.44 943.834 1303.39C958.584 1295.32 1034.89 1258.9 1040.06 1251.94C1048.66 1247.78 1056.27 1241.71 1064.3 1236.63C1079.05 1227.31 1094.42 1218.43 1108.15 1207.61C1122.82 1196.06 1135.34 1183.49 1148.78 1170.65C1165.49 1154.68 1182.06 1139.33 1196.96 1121.56C1206.77 1109.87 1215.71 1097.06 1225.05 1084.95C1240.61 1064.76 1256.52 1043.72 1268.34 1021.06C1272.34 1013.38 1297.17 967.843 1295.85 963.673C1294.56 965.447 1294.05 967.593 1293.02 969.516C1290.01 975.118 1287.28 980.986 1284.18 986.518C1282.64 989.282 1279.7 990.678 1278.08 993.139C1276.87 994.971 1277.46 995.999 1277.86 997.969C1269.87 1010.2 1230.67 1075.09 1222.18 1079.07C1223.43 1076.56 1224.9 1074.41 1226.57 1072.16C1229.53 1065.39 1235.6 1058.98 1239.66 1052.65C1242.95 1047.52 1245.69 1041.57 1249.24 1036.69C1249.92 1035.75 1250.84 1035.13 1251.79 1034.49C1254.31 1032.79 1255.18 1027.65 1257.99 1025.17C1258.27 1024.92 1258.55 1024.69 1258.83 1024.45L1258.69 1023.63L1257.09 1023.47C1257.38 1023.32 1257.7 1023.2 1257.98 1023.02C1261.45 1020.8 1267.46 1012.13 1267.89 1008.05C1268.06 1006.45 1268.26 1005.31 1268.84 1003.8L1269.36 1004.58C1271.56 1003.39 1274 999.03 1274.78 996.697C1274.28 995.152 1273.63 993.764 1274.05 992.127C1275.48 991.543 1276.33 992.042 1277.75 991.495L1277.55 989.83L1276.2 988.786L1277.42 986.785C1278.42 987.746 1277.85 987.399 1279.11 987.853C1282.05 984.855 1282.54 982.32 1283.28 978.257C1284.9 969.441 1293.52 961.419 1294.94 953.398L1293.97 953.456L1293.97 952.594C1294.2 952.301 1294.43 952.011 1294.65 951.716C1296.51 949.283 1296.44 948.948 1296.06 946.098C1299.45 935.89 1304.87 925.977 1308.7 915.844C1318.82 889.451 1327.34 862.472 1334.22 835.054C1338.76 816.728 1342.53 798.218 1345.5 779.574C1346.99 770.247 1347.29 757.812 1349.92 749.156Z"/><path fill="#C0B5B0" fill-opacity="0.30588236" transform="matrix(0.28715 0 0 0.287281 0 -2.38419e-07)" d="M83.4421 936.022L97.3812 965.727L95.7269 966.457C94.1538 972.11 107.564 996.643 110.923 1002.67C112.128 1004.84 113.177 1007.21 115.396 1008.38C116.928 1007.92 118.255 1007.63 119.58 1006.7C122.817 1012.08 126.967 1017.84 129.629 1023.48L127.585 1024.31C126.911 1025.97 126.932 1026.74 127.627 1028.44C129.654 1033.39 134.312 1038.25 135.351 1043.39C138.624 1051.49 152.309 1074.23 159.108 1078.45C161.89 1083.6 166.695 1087.43 170.148 1092.11C182.963 1109.48 196.111 1126.29 211.105 1141.89C218.771 1149.86 227.43 1156.88 235.674 1164.24C244.492 1172.11 252.964 1180.27 261.93 1188.01C267.909 1193.17 281.79 1205.7 288.172 1209.05C293.522 1215.12 306.029 1221.37 313.139 1225.64C315.304 1226.94 316.492 1229.54 318.737 1230.95C323.185 1233.76 327.852 1236.04 332.228 1239.03C338.397 1243.24 344.004 1248.23 350.124 1252.5C360.464 1259.72 382.154 1272.87 394.359 1275.66L394.903 1275.78L395.805 1276.1C415.261 1283.26 433.327 1294.48 452.607 1302.35C462.498 1306.39 472.607 1309.67 482.644 1313.29C484.662 1314.02 486.471 1315.23 488.479 1315.93C491.458 1316.97 494.885 1316.31 497.879 1317.31C503.066 1319.03 507.983 1321.51 513.309 1323.14C562.194 1338.16 615.747 1346.1 666.886 1344C675.821 1343.63 685.14 1342.36 693.889 1340.46C701.204 1338.88 708.508 1336.56 716.004 1336.12L716.89 1335.31C728.048 1333.86 739.71 1334.39 750.967 1333.39C781.756 1330.67 812.819 1326.09 842.849 1318.71C845.105 1319.7 846.978 1321.02 849.453 1320.59L850.869 1318.92C855.622 1318.82 858.081 1323.3 862.957 1321.44C865.585 1320.43 870.626 1321.45 873.692 1321.03C878.972 1320.33 884.056 1318.18 889.229 1316.94C892.721 1316.11 896.36 1316.02 899.928 1315.77C901.487 1315.67 902.392 1315.38 903.861 1314.88C905.739 1314.24 907.315 1314.74 909.15 1315.21L909.99 1315.98C909.704 1317.77 909.425 1317.75 907.863 1318.83C907.012 1319.42 906.019 1319.85 905.225 1320.5C891.832 1325.15 878.308 1328.44 864.553 1331.79C789.089 1349.57 711.327 1355.56 634.029 1349.56C597.112 1346.29 560.487 1340.3 524.451 1331.64C504.275 1326.89 479.835 1320.88 460.669 1313.23C445.94 1307.35 432.359 1299.78 418.088 1293.02C399.991 1284.43 381.32 1277.06 363.782 1267.3C280.865 1220.76 208.84 1157.06 152.523 1080.44C147.772 1073.98 142.154 1067.93 137.74 1061.28C130.424 1050.26 124.7 1037.71 118.534 1026.02C115.372 1020.03 112.069 1013.59 108.412 1007.9C106.24 1004.53 103.209 1001.6 101.655 997.874C97.484 987.88 92.1569 978.629 87.4441 968.9C83.9901 961.77 81.0029 953.634 76.9081 946.944C76.6931 946.593 76.4677 946.248 76.2475 945.9C77.9035 947.136 79.0565 948.178 81.1585 948.03C82.0553 945.219 80.4517 941.473 80.7501 938.318C81.7473 936.741 81.6861 936.568 83.4421 936.022Z"/><defs><linearGradient id="gradient_0" gradientUnits="userSpaceOnUse" x1="1101.2693" y1="1156.9835" x2="1131.663" y2="1184.7108"><stop offset="0" stop-color="#ABA7A5" stop-opacity="0.43921569"/><stop offset="1" stop-color="#B7B6B5" stop-opacity="0.56862748"/></linearGradient></defs><path fill="url(#gradient_0)" transform="matrix(0.28715 0 0 0.287281 0 -2.38419e-07)" d="M1226.57 1072.16C1224.9 1074.41 1223.43 1076.56 1222.18 1079.07C1230.67 1075.09 1269.87 1010.2 1277.86 997.969C1277.46 995.999 1276.87 994.971 1278.08 993.139C1279.7 990.678 1282.64 989.282 1284.18 986.518C1287.28 980.986 1290.01 975.118 1293.02 969.516C1294.05 967.593 1294.56 965.447 1295.85 963.673C1297.17 967.843 1272.34 1013.38 1268.34 1021.06C1256.52 1043.72 1240.61 1064.76 1225.05 1084.95C1215.71 1097.06 1206.77 1109.87 1196.96 1121.56C1182.06 1139.33 1165.49 1154.68 1148.78 1170.65C1135.34 1183.49 1122.82 1196.06 1108.15 1207.61C1094.42 1218.43 1079.05 1227.31 1064.3 1236.63C1056.27 1241.71 1048.66 1247.78 1040.06 1251.94C1033.17 1251.59 1016.44 1263.67 1008.82 1264.48C1007.28 1264.65 1006.1 1265.17 1004.62 1265.53C1002.94 1265.93 1002.37 1265.89 1000.9 1265.02L1002.84 1264.24C1003.79 1262.92 1004.37 1262.05 1005.98 1261.57C1007.22 1261.2 1007.62 1261.19 1008.58 1260.22C1017.33 1251.35 1033.47 1249.6 1041.84 1239.99C1043.08 1238.56 1042.56 1237.62 1042.29 1235.9C1097.5 1200.89 1142 1162.65 1186.17 1114.56C1193.74 1106.31 1200.99 1097.57 1207.92 1088.79C1211.55 1084.21 1214.99 1078.91 1219.04 1074.73L1219.72 1074.05C1219.86 1074 1220 1073.97 1220.13 1073.91C1222.46 1072.93 1224 1072.4 1226.57 1072.16Z"/><defs><linearGradient id="gradient_1" gradientUnits="userSpaceOnUse" x1="23.432543" y1="822.53253" x2="71.157127" y2="818.48907"><stop offset="0" stop-color="#E7E8E9" stop-opacity="0"/><stop offset="1" stop-color="#C2B9B6" stop-opacity="0.20784314"/></linearGradient></defs><path fill="url(#gradient_1)" transform="matrix(0.28715 0 0 0.287281 0 -2.38419e-07)" d="M30.6955 685.605L30.7804 686.426C32.5256 704.574 31.4564 722.967 33.2818 741.187C38.5763 790.479 49.0725 839.072 64.5949 886.155C70.2507 903.021 76.9378 919.476 83.4421 936.022C81.6861 936.568 81.7473 936.741 80.7501 938.318C80.4517 941.473 82.0553 945.219 81.1585 948.03C79.0565 948.178 77.9035 947.136 76.2475 945.9C73.3008 937.859 68.9612 930.187 65.5427 922.307C59.3427 908.016 53.7935 892.798 49.2335 877.905C48.3613 875.056 45.5335 859.963 44.1132 858.684C42.9213 860.138 41.7119 861.552 40.4548 862.95L39.3122 862.907C38.838 862.264 38.3847 861.677 38.1395 860.902C34.868 850.559 33.6149 839.494 31.4537 828.924C28.5365 814.658 15.2465 762.441 20.6222 751.546C21.3124 750.148 20.8626 750.568 22.2088 750.072L23.6468 752.142C23.6902 750.375 23.8416 749.13 23.1722 747.454C21.4279 747.847 20.8837 748.094 19.2068 747.563C15.0808 739.942 22.4778 738.362 23.6906 732.651C22.9846 731.849 22.6238 731.437 22.3898 730.357C22.3348 730.103 22.3101 729.844 22.2702 729.587C22.2074 731.341 22.3361 732.771 21.5313 734.366C20.4215 732.346 18.6483 713.359 18.6015 709.898C18.5721 707.72 18.7141 706.604 20.2304 705.027C22.1303 704.822 22.4635 704.919 24.2183 705.697C23.2131 706.247 23.222 705.973 22.9075 706.816C21.4275 710.784 21.1552 720.42 22.6768 724.242C23.4202 723.522 24.8331 722.497 25.3462 721.658C25.8855 720.777 22.6344 713.232 23.7634 708.572C23.9422 708.512 24.1292 708.472 24.2998 708.392C26.372 707.417 27.0525 704.981 27.7209 702.981C27.2778 701.929 27.5286 702.259 26.7955 701.475C26.6317 701.3 26.458 701.134 26.2892 700.964L27.9949 701.004L28.6291 702.049C28.6534 703.902 28.7201 705.354 27.6892 706.966C26.9918 708.056 26.6993 708.714 26.4941 710.034L27.1798 710.93L26.5605 711.922L27.9818 709.064C30.9518 715.122 24.7795 730.343 27.0115 736.218C27.5976 737.761 27.9174 737.852 29.33 738.415C30.1388 735.747 27.4767 732.613 27.5282 729.705C27.5874 726.369 29.6086 722.807 29.8267 719.201C30.5013 708.049 29.4948 696.701 30.6955 685.605Z"/><path fill="#9B9795" fill-opacity="0.51764709" transform="matrix(0.28715 0 0 0.287281 0 -2.38419e-07)" d="M404.155 1270.59C476.879 1303.4 551.814 1326.64 631.811 1332.8C648.496 1334.09 665.277 1335.21 682.014 1335.3C691.742 1335.35 708.068 1333.98 716.89 1335.31L716.004 1336.12C708.508 1336.56 701.204 1338.88 693.889 1340.46C685.14 1342.36 675.821 1343.63 666.886 1344C615.747 1346.1 562.194 1338.16 513.309 1323.14C507.983 1321.51 503.066 1319.03 497.879 1317.31C494.885 1316.31 491.458 1316.97 488.479 1315.93C486.471 1315.23 484.662 1314.02 482.644 1313.29C472.607 1309.67 462.498 1306.39 452.607 1302.35C433.327 1294.48 415.261 1283.26 395.805 1276.1L394.903 1275.78C396.883 1271.13 400.358 1273.59 404.171 1271.71L404.155 1270.59Z"/><path fill="#9B9795" fill-opacity="0.49411765" transform="matrix(0.28715 0 0 0.287281 0 -2.38419e-07)" d="M1042.29 1235.9C1042.56 1237.62 1043.08 1238.56 1041.84 1239.99C1033.47 1249.6 1017.33 1251.35 1008.58 1260.22C1007.62 1261.19 1007.22 1261.2 1005.98 1261.57C1004.37 1262.05 1003.79 1262.92 1002.84 1264.24L1000.9 1265.02C1002.37 1265.89 1002.94 1265.93 1004.62 1265.53C1006.1 1265.17 1007.28 1264.65 1008.82 1264.48C1016.44 1263.67 1033.17 1251.59 1040.06 1251.94C1034.89 1258.9 958.584 1295.32 943.834 1303.39C940.091 1305.44 935.39 1306.98 932.15 1309.67L932.611 1309.36C932.976 1309.4 933.339 1309.49 933.707 1309.48C941.564 1309.28 958.153 1299.06 967.194 1296.79C959.689 1306.25 918.678 1318.57 905.225 1320.5C906.019 1319.85 907.012 1319.42 907.863 1318.83C909.425 1317.75 909.704 1317.77 909.99 1315.98L909.15 1315.21C907.315 1314.74 905.739 1314.24 903.861 1314.88C902.392 1315.38 901.487 1315.67 899.928 1315.77C896.36 1316.02 892.721 1316.11 889.229 1316.94C884.056 1318.18 878.972 1320.33 873.692 1321.03C870.626 1321.45 865.585 1320.43 862.957 1321.44C858.081 1323.3 855.622 1318.82 850.869 1318.92L849.453 1320.59C846.978 1321.02 845.105 1319.7 842.849 1318.71C898.997 1305.52 953.206 1285.14 1004.13 1258.06C1017.1 1251.16 1029.68 1243.43 1042.29 1235.9Z"/><defs><linearGradient id="gradient_2" gradientUnits="userSpaceOnUse" x1="225.6223" y1="1159.2506" x2="249.42027" y2="1140.2076"><stop offset="0" stop-color="#B4ABA6" stop-opacity="0.49019608"/><stop offset="1" stop-color="#A39791" stop-opacity="0.51372552"/></linearGradient></defs><path fill="url(#gradient_2)" transform="matrix(0.28715 0 0 0.287281 0 -2.38419e-07)" d="M159.108 1078.45C159.524 1077.67 159.934 1077.09 160.474 1076.39C162.558 1077.13 164.438 1077.55 166.641 1077.79L167.338 1077.86C202.889 1124.05 244.315 1165.41 290.565 1200.88C299.621 1207.9 309.14 1214.19 318.356 1220.97L317.366 1221.61C306.05 1222.18 298.881 1211.74 288.172 1209.05C281.79 1205.7 267.909 1193.17 261.93 1188.01C252.964 1180.27 244.492 1172.11 235.674 1164.24C227.43 1156.88 218.771 1149.86 211.105 1141.89C196.111 1126.29 182.963 1109.48 170.148 1092.11C166.695 1087.43 161.89 1083.6 159.108 1078.45Z"/><defs><linearGradient id="gradient_3" gradientUnits="userSpaceOnUse" x1="370.12415" y1="1259.184" x2="372.41913" y2="1255.1135"><stop offset="0" stop-color="#A49D99" stop-opacity="0.46666667"/><stop offset="1" stop-color="#98908E" stop-opacity="0.50588238"/></linearGradient></defs><path fill="url(#gradient_3)" transform="matrix(0.28715 0 0 0.287281 0 -2.38419e-07)" d="M342.015 1236.24C362.472 1248.44 382.696 1260.22 404.155 1270.59L404.171 1271.71C400.358 1273.59 396.883 1271.13 394.903 1275.78L394.359 1275.66C393.54 1274.94 392.888 1274.55 391.887 1274.08C379.977 1268.46 367.303 1261.81 356.192 1254.75C352.136 1252.17 348.907 1247.21 344.47 1245.56C344.391 1245.53 343.068 1245.09 342.933 1244.99C339.906 1242.66 342.638 1239.97 342.232 1237.2C342.185 1236.87 342.087 1236.56 342.015 1236.24Z"/><path fill="#C0B5B0" fill-opacity="0.51372552" transform="matrix(0.28715 0 0 0.287281 0 -2.38419e-07)" d="M1219.72 1074.05C1226.84 1063.33 1234.72 1053.09 1242.03 1042.49C1251.08 1029.35 1259.55 1015.48 1267.51 1001.65C1273.76 990.787 1279.62 979.553 1285.12 968.289C1288.61 961.126 1291.72 953.548 1295.72 946.677L1296.06 946.098C1296.44 948.948 1296.51 949.283 1294.65 951.716C1294.43 952.011 1294.2 952.301 1293.97 952.594L1293.97 953.456L1294.94 953.398C1293.52 961.419 1284.9 969.441 1283.28 978.257C1282.54 982.32 1282.05 984.855 1279.11 987.853C1277.85 987.399 1278.42 987.746 1277.42 986.785L1276.2 988.786L1277.55 989.83L1277.75 991.495C1276.33 992.042 1275.48 991.543 1274.05 992.127C1273.63 993.764 1274.28 995.152 1274.78 996.697C1274 999.03 1271.56 1003.39 1269.36 1004.58L1268.84 1003.8C1268.26 1005.31 1268.06 1006.45 1267.89 1008.05C1267.46 1012.13 1261.45 1020.8 1257.98 1023.02C1257.7 1023.2 1257.38 1023.32 1257.09 1023.47L1258.69 1023.63L1258.83 1024.45C1258.55 1024.69 1258.27 1024.92 1257.99 1025.17C1255.18 1027.65 1254.31 1032.79 1251.79 1034.49C1250.84 1035.13 1249.92 1035.75 1249.24 1036.69C1245.69 1041.57 1242.95 1047.52 1239.66 1052.65C1235.6 1058.98 1229.53 1065.39 1226.57 1072.16C1224 1072.4 1222.46 1072.93 1220.13 1073.91C1220 1073.97 1219.86 1074 1219.72 1074.05Z"/><path fill="#9B9795" fill-opacity="0.47450981" transform="matrix(0.28715 0 0 0.287281 0 -2.38419e-07)" d="M288.172 1209.05C298.881 1211.74 306.05 1222.18 317.366 1221.61L318.356 1220.97C325.976 1226.02 334.974 1230.59 342.015 1236.24C342.087 1236.56 342.185 1236.87 342.232 1237.2C342.638 1239.97 339.906 1242.66 342.933 1244.99C343.068 1245.09 344.391 1245.53 344.47 1245.56C348.907 1247.21 352.136 1252.17 356.192 1254.75C367.303 1261.81 379.977 1268.46 391.887 1274.08C392.888 1274.55 393.54 1274.94 394.359 1275.66C382.154 1272.87 360.464 1259.72 350.124 1252.5C344.004 1248.23 338.397 1243.24 332.228 1239.03C327.852 1236.04 323.185 1233.76 318.737 1230.95C316.492 1229.54 315.304 1226.94 313.139 1225.64C306.029 1221.37 293.522 1215.12 288.172 1209.05Z"/><defs><linearGradient id="gradient_4" gradientUnits="userSpaceOnUse" x1="147.80733" y1="1060.5874" x2="151.47002" y2="1058.4181"><stop offset="0" stop-color="#BCB2AD" stop-opacity="0.4509804"/><stop offset="1" stop-color="#B4A9A2" stop-opacity="0.49411765"/></linearGradient></defs><path fill="url(#gradient_4)" transform="matrix(0.28715 0 0 0.287281 0 -2.38419e-07)" d="M137.398 1043.82C137.664 1043.82 137.936 1043.89 138.197 1043.83C139.558 1043.55 140.312 1042.97 141.821 1042.95C150.059 1054.78 158.567 1066.42 167.338 1077.86L166.641 1077.79C164.438 1077.55 162.558 1077.13 160.474 1076.39C159.934 1077.09 159.524 1077.67 159.108 1078.45C152.309 1074.23 138.624 1051.49 135.351 1043.39L137.398 1043.82Z"/><defs><linearGradient id="gradient_5" gradientUnits="userSpaceOnUse" x1="109.53229" y1="996.84814" x2="112.24783" y2="995.73358"><stop offset="0" stop-color="#C0B6B1" stop-opacity="0.36862746"/><stop offset="1" stop-color="#BDB0A9" stop-opacity="0.40392157"/></linearGradient></defs><path fill="url(#gradient_5)" transform="matrix(0.28715 0 0 0.287281 0 -2.38419e-07)" d="M97.3812 965.727C104.359 979.609 111.761 993.274 119.58 1006.7C118.255 1007.63 116.928 1007.92 115.396 1008.38C113.177 1007.21 112.128 1004.84 110.923 1002.67C107.564 996.643 94.1538 972.11 95.7269 966.457L97.3812 965.727Z"/><path fill="#C0B5B0" fill-opacity="0.43529412" transform="matrix(0.28715 0 0 0.287281 0 -2.38419e-07)" d="M135.351 1043.39C134.312 1038.25 129.654 1033.39 127.627 1028.44C126.932 1026.74 126.911 1025.97 127.585 1024.31L129.629 1023.48L136.767 1034.82L135.391 1035.81C135.43 1037.03 135.769 1037.71 136.276 1038.79C137.073 1040.49 137.061 1041.44 137.259 1043.25C137.28 1043.44 137.351 1043.63 137.398 1043.82L135.351 1043.39Z"/><path fill="#C0B5B0" fill-opacity="0.4509804" transform="matrix(0.28715 0 0 0.287281 0 -2.38419e-07)" d="M136.767 1034.82L141.821 1042.95C140.312 1042.97 139.558 1043.55 138.197 1043.83C137.936 1043.89 137.664 1043.82 137.398 1043.82C137.351 1043.63 137.28 1043.44 137.259 1043.25C137.061 1041.44 137.073 1040.49 136.276 1038.79C135.769 1037.71 135.43 1037.03 135.391 1035.81L136.767 1034.82Z"/></svg>