<?xml version="1.0" encoding="utf-8" ?><svg xmlns="http://www.w3.org/2000/svg" xmlns:xlink="http://www.w3.org/1999/xlink" width="400" height="394" viewBox="0 0 400 394"><path fill="#069AB5" transform="matrix(0.290909 0 0 0.29142 -0.00012207 -1.49012e-08)" d="M28.4497 752.74C25.5175 726.147 23.486 698.734 23.6406 671.971C24.1853 556.519 55.2434 443.262 113.668 343.678C122.188 329.21 130.937 314.774 140.67 301.081C244.4 153.293 403.458 53.6891 581.719 24.8895C756.291 -4.29256 935.352 35.9838 1080.61 137.104C1199.87 220.11 1288.45 340.091 1332.67 478.492C1339.28 499.825 1345.14 522.045 1349.46 543.947C1352.93 561.55 1355.35 579.282 1358.34 596.963C1370.99 709.84 1354.65 824.078 1310.86 928.885C1301.17 951.279 1290.39 973.182 1278.55 994.514C1273.67 1003.17 1268.21 1011.49 1263.13 1020.02C1228.14 1075.31 1187.55 1122.62 1138.95 1166.24C1129.94 1174.32 1120.41 1181.96 1110.83 1189.36C1106.18 1192.95 1082.37 1209.52 1080.33 1212.44C1079.91 1213.04 1079.78 1213.81 1079.5 1214.49C1078.76 1215.05 1078.36 1215.35 1077.46 1215.56C1074.5 1216.26 1052.84 1231.98 1046.87 1234.89L1046.45 1236.91C1038.66 1240.24 995.243 1264.27 992.634 1264.39C989.66 1264.54 983.256 1269.05 980.285 1270.54C968.606 1276.39 956.32 1281.69 944.229 1286.64C908.299 1301.33 870.391 1311.66 832.531 1319.88C821.392 1322.3 808.671 1325.66 797.282 1325.83C781.117 1327.21 765.07 1330.23 748.87 1331.35C705.962 1334.3 661.949 1334.4 619.165 1329.68C594.402 1326.95 569.988 1322.41 545.543 1317.69C509.165 1309.63 475.51 1298.18 440.545 1285.72L439.329 1285.24C295.904 1227.73 177.019 1122.02 103.141 986.314C91.0896 964.305 80.5926 941.276 70.8021 918.187C57.8202 884.064 46.6948 849.616 38.8216 813.911C36.2302 802.159 34.3737 790.194 32.2476 778.348L29.246 758.111C29.0909 756.284 28.8006 754.539 28.4497 752.74Z"/><path fill="white" transform="matrix(0.290909 0 0 0.29142 -0.00012207 -1.49012e-08)" d="M672.13 52.7447C673.334 52.614 674.542 52.5229 675.751 52.4717C715.252 51.1738 754.784 53.7624 793.778 60.2002C917.54 79.7969 1032.76 135.502 1124.98 220.326C1221.41 308.822 1287.42 425.519 1313.57 553.756C1320.13 586.703 1323.34 619.966 1324.89 653.488C1331.96 806.404 1272.57 970.036 1169.42 1083.12C1094.58 1165.17 1008.02 1224.99 902.937 1261.54C874.861 1271.31 845.439 1279.7 816.223 1285.31C782.429 1291.66 748.212 1295.49 713.852 1296.78C684.98 1297.41 656.402 1296.79 627.636 1293.87C495.459 1280.4 370.79 1225.99 271.04 1138.24C148.588 1030.77 73.488 879.328 62.0526 716.815C50.632 551.389 106.535 388.366 217.071 264.749C308.734 161.792 431.408 91.4456 566.574 64.3312C586.012 60.5414 606.341 57.2502 626.084 55.4823C641.421 54.109 656.771 53.6689 672.13 52.7447Z"/><path fill="#069AB5" transform="matrix(0.290909 0 0 0.29142 -0.00012207 -1.49012e-08)" d="M663.867 322.508C673.9 321.315 684.666 322.147 694.74 322.807C737.265 325.592 779.982 336.249 814.658 362.055C854.365 391.606 877.63 429.992 884.659 479.223C887.794 501.178 887.741 522.521 885.866 544.578C878.502 631.194 836.093 695.717 782.424 761.48C740.67 812.644 693.918 859.291 647.739 906.42L602.63 952.906C593.911 961.781 583.507 970.529 576.18 980.539C576.018 980.761 575.861 980.988 575.702 981.213C601.343 981.881 627.267 981.247 652.938 981.274L811.237 981.337L871.317 981.245C881.046 981.229 891.948 980.321 901.563 981.608C905.293 982.108 908.22 983.783 910.884 986.419C919.41 994.855 921.15 1006.89 921.382 1018.34C921.627 1030.42 920.711 1048.39 911.44 1057.42C908.202 1060.57 902.527 1061.32 898.166 1061.71C888.474 1062.57 878.357 1062.07 868.624 1062.09L816.543 1062.17L652.42 1062.28L543.554 1062.2C525.153 1062.17 505.795 1063.42 487.52 1061.69C482.308 1061.19 475.638 1060.06 471.215 1057.13C464.291 1052.54 461.12 1043.94 459.836 1036.09C456.681 1016.79 457.309 995.968 466.913 978.543C475.747 962.513 491.16 949.199 503.978 936.302L537.981 901.936L631.532 806.866C662.787 774.508 693.415 742.256 719.624 705.542C755.208 655.694 785.881 600.837 787.613 538.08C787.914 527.172 787.862 516.244 786.016 505.458C780.715 474.485 764.99 447.112 739.067 428.911C682.183 388.972 596.751 409.306 540.124 440.061C530.209 445.447 497.582 466.817 488.513 467.612C486.155 467.819 483.481 466.528 481.669 465.076C474.56 459.377 473.315 447.971 472.591 439.497C471.091 421.953 469.828 400.255 482.072 386.049C489.16 377.824 499.497 371.953 508.754 366.457C545.586 344.59 589.11 330.985 631.448 325.296C642.172 323.855 653.079 323.3 663.867 322.508Z"/><path fill="#B5B0AE" fill-opacity="0.30980393" transform="matrix(0.290909 0 0 0.29142 -0.00012207 -1.49012e-08)" d="M134.774 1054.68C131.331 1040.33 120.922 1026.88 112.043 1015.36L112.43 1014.85L115.346 1014.99C114.615 1009.8 109.187 1009.15 106.44 1005.47C103.157 1001.05 107.445 1000.91 99.3555 994.327C99.3049 994.138 99.2569 993.95 99.2035 993.762C99.1147 993.45 99.0165 993.141 98.9291 992.828C97.4819 987.649 94.387 982.904 91.86 978.166C85.0801 965.457 77.1001 952.955 72.2309 939.336C71.5125 937.326 67.7136 920.934 67.7021 919.794C67.6942 919.012 68.2551 917.957 68.5974 917.239L70.8021 918.187C80.5926 941.276 91.0896 964.305 103.141 986.314C177.019 1122.02 295.904 1227.73 439.329 1285.24L440.545 1285.72L440.939 1287.69C447.198 1291.17 455.351 1295 462.029 1297.63C465.689 1299.06 487.23 1305.93 488.751 1307.04C489.583 1307.64 490.406 1309.19 490.974 1310.06C492.669 1310.28 493.915 1309.43 495.455 1309.47C498.416 1309.53 502.595 1311.91 505.745 1312.55L504.847 1313.01C504.491 1312.88 504.139 1312.75 503.779 1312.64C500.099 1311.52 496.934 1313.48 493.158 1311.66L494.495 1313.4C492.904 1313.7 485.442 1311.26 484.038 1310.36C483.477 1310 483.027 1309.59 482.508 1309.16L482.55 1308.53L483.961 1307.43C481.919 1306.45 477.987 1308.53 477.059 1306.6C476.938 1306.35 476.88 1305.49 476.852 1305.19C471.561 1304.41 468.687 1306.31 463.755 1303.18C462.631 1302.46 461.628 1302.47 460.332 1302.4L460.12 1302.81C470.626 1307.44 481.561 1311.01 492.162 1315.42C494.176 1316.21 496.161 1316.53 497.466 1318.29C494.392 1320.2 484.196 1318.84 480.5 1318.21C480.355 1318.19 480.227 1318.1 480.091 1318.05C471.994 1314.31 462.286 1313.61 454.409 1309.67C444.884 1304.91 434.928 1301.15 425.137 1296.97C414.046 1292.24 403.268 1286.71 392.394 1281.51C386.821 1278.84 380.944 1276.61 375.501 1273.71C354.345 1262.42 333.114 1249.97 313.411 1236.29C297.354 1225.15 282.894 1212.75 268.104 1200.04C261.104 1194.03 253.729 1188.4 246.912 1182.19C230.083 1166.84 213.909 1150.23 198.292 1133.65C190.572 1125.45 181.866 1117.93 174.623 1109.34C169.055 1102.73 164.321 1095.36 159.234 1088.38C151.023 1077.12 142.649 1066.22 134.774 1054.68Z"/><defs><linearGradient id="gradient_0" gradientUnits="userSpaceOnUse" x1="1396.7665" y1="729.36017" x2="1275.1786" y2="750.69965"><stop offset="0" stop-color="#EBEDED" stop-opacity="0"/><stop offset="1" stop-color="#D0C4C2" stop-opacity="0.42745098"/></linearGradient></defs><path fill="url(#gradient_0)" transform="matrix(0.290909 0 0 0.29142 -0.00012207 -1.49012e-08)" d="M1358.34 596.963L1359.05 592.326C1359.85 593.146 1359.56 592.662 1359.89 593.789L1360.41 593.361L1361.35 593.865C1362.61 589.539 1364.15 584.599 1363.8 580.07C1363.44 575.432 1362.29 570.682 1360.89 566.256C1359.24 561.034 1349.28 540.139 1354.1 536.534C1356.15 537.046 1358.06 538.748 1359.15 540.563C1363.79 548.274 1371.82 583.982 1372.65 593.127C1373.6 603.567 1373.01 614.468 1373.01 624.963L1372.99 681.593L1373 744.703C1373.01 757.857 1373.52 771.231 1372.52 784.341C1372.37 786.361 1366.51 809.797 1365.67 811.339L1365.72 811.352L1364.18 811.233L1365.96 811.103L1364.43 811.17C1364.25 812.659 1364.39 812.623 1364.94 813.918C1366.23 816.94 1365.14 819.21 1363.93 822.085C1363.5 823.114 1363.07 823.803 1362.31 824.61L1361.65 823.907L1362.53 824.029L1361.53 823.306C1361.06 814.403 1367.83 780.664 1365.73 775.913C1364.81 777.933 1360.95 813.48 1360.17 818.477C1358.67 828.043 1351.2 854.598 1347.36 863.257C1347.01 864.057 1346.92 864.704 1346.91 865.571L1345.06 869.096C1342.86 873.377 1339.71 873.696 1339.47 879.068C1339.38 881.048 1337.94 882.601 1336.87 884.166C1334.5 887.638 1334.06 888.355 1334.7 892.515C1334.12 894.256 1333.38 895.019 1332.14 896.388C1330.28 898.433 1329.89 899.761 1329.55 902.451C1329.3 904.512 1329.03 906.566 1328.8 908.631C1328.14 908.42 1327.48 908.197 1326.83 907.962C1324.32 910.805 1319.31 926.088 1316.99 930.929L1317.33 932.156L1319.25 932.005L1319.3 933.121L1318.98 931.96C1319.01 932.22 1319.08 932.479 1319.08 932.742C1319.1 934.472 1317.96 936.583 1316.57 937.608C1315.82 938.167 1315.82 937.973 1314.77 937.959C1313.26 941.319 1311.98 944.131 1309.81 947.139C1309.34 945.411 1308.98 944.065 1309.6 942.319C1310.4 940.087 1310.97 937.893 1310.86 935.491C1310.75 933.219 1311.14 931.19 1310.86 928.885C1354.65 824.078 1370.99 709.84 1358.34 596.963Z"/><path fill="#B5B0AE" fill-opacity="0.37254903" transform="matrix(0.290909 0 0 0.29142 -0.00012207 -1.49012e-08)" d="M1263.13 1020.02L1264.69 1021.89C1266.54 1021.53 1267.68 1019.16 1268.81 1017.63C1269.66 1017.64 1270.84 1017.74 1271.7 1017.56C1273.46 1017.19 1274.13 1016.44 1275.12 1015.02C1274.85 1014.14 1274.66 1013.37 1274.5 1012.47C1276.39 1011.07 1278.68 1009.54 1280.05 1007.6C1281.35 1005.75 1292.71 986.742 1293.04 985.445C1293.33 984.255 1293.4 984.383 1294.27 983.589C1296.67 986.583 1295.92 988.85 1296.63 992.441C1296.4 992.762 1296.15 993.079 1295.92 993.403C1295.17 994.445 1295.06 995.16 1294.67 996.35C1293.1 1001.11 1284.7 1012.21 1281.59 1017.39C1271.29 1034.61 1258.77 1057.63 1246.59 1072.96C1243.72 1076.58 1239.91 1079.45 1236.92 1082.99C1227.38 1094.28 1218.25 1105.99 1208.61 1117.2C1203.28 1123.41 1197.31 1129.25 1192.31 1135.7C1188.92 1140.08 1183.42 1143.14 1179.39 1146.99C1172.87 1153.21 1167.04 1160.16 1160.48 1166.33C1154.16 1172.26 1146.92 1177.56 1140.18 1183.01C1125.06 1195.23 1101.96 1216.16 1082.7 1219.03C1081.69 1217.64 1081.62 1216.62 1081.32 1214.98C1080.72 1214.8 1080.12 1214.56 1079.5 1214.49C1079.78 1213.81 1079.91 1213.04 1080.33 1212.44C1082.37 1209.52 1106.18 1192.95 1110.83 1189.36C1120.41 1181.96 1129.94 1174.32 1138.95 1166.24C1187.55 1122.62 1228.14 1075.31 1263.13 1020.02Z"/><path fill="#B5B0AE" fill-opacity="0.34509805" transform="matrix(0.290909 0 0 0.29142 -0.00012207 -1.49012e-08)" d="M492.162 1315.42C494.273 1315.58 496.48 1315.7 498.538 1316.22C502.345 1317.18 519.995 1325.32 522.465 1323.61C523.069 1323.2 523.701 1322.82 524.333 1322.44C525.222 1322.6 526.131 1322.79 527.035 1322.85C528.711 1322.96 530.086 1323.21 531.358 1322.08L530.965 1320.2L531.412 1319.54C533.765 1319.96 536.179 1320.51 538.556 1320.75C540.217 1320.91 541.13 1321.09 542.441 1319.95C540.828 1318.85 539.012 1318.65 537.127 1318.23C538.156 1317.97 537.62 1318.01 538.889 1318.18C541.495 1318.54 543.053 1318.82 545.543 1317.69C569.988 1322.41 594.402 1326.95 619.165 1329.68C661.949 1334.4 705.962 1334.3 748.87 1331.35C765.07 1330.23 781.117 1327.21 797.282 1325.83C797.186 1325.91 797.094 1325.99 796.993 1326.06C792.598 1329.21 788.839 1333.32 783.997 1335.79C778.898 1338.39 770.536 1338.18 764.782 1339.25C762.264 1339.71 760.07 1340.93 757.616 1341.54C752.868 1342.71 747.733 1343.09 742.864 1343.54C737.105 1344.08 730.693 1343.37 725.129 1344.67C704.992 1349.38 682.927 1346.21 662.522 1345.58C651.727 1345.24 640.634 1345.92 629.88 1344.88C627.602 1344.66 625.288 1343.75 622.999 1343.38C617.116 1342.44 605.838 1340.88 599.982 1341.59C598.262 1341.8 597.393 1342.13 595.703 1341.44C590.848 1339.45 586.134 1341.62 581.66 1340.01C574.463 1337.44 571.567 1337.76 564.36 1337.16C542.345 1335.34 518.777 1330.36 497.565 1324.04C494.998 1323.28 492.751 1321.83 490.21 1321.06C487.834 1320.34 481.458 1319.65 480.091 1318.05C480.227 1318.1 480.355 1318.19 480.5 1318.21C484.196 1318.84 494.392 1320.2 497.466 1318.29C496.161 1316.53 494.176 1316.21 492.162 1315.42Z"/><defs><linearGradient id="gradient_1" gradientUnits="userSpaceOnUse" x1="30.442591" y1="855.19745" x2="53.885292" y2="850.16278"><stop offset="0" stop-color="#E2E4E4" stop-opacity="0"/><stop offset="1" stop-color="#C0BDBB" stop-opacity="0.11372549"/></linearGradient></defs><path fill="url(#gradient_1)" transform="matrix(0.290909 0 0 0.29142 -0.00012207 -1.49012e-08)" d="M28.4497 752.74C28.8006 754.539 29.0909 756.284 29.246 758.111L28.4919 759.785C28.1968 759.513 27.9343 759.2 27.6066 758.967C27.4561 758.861 27.2579 758.846 27.0835 758.786C25.0858 767.144 25.9423 775.278 26.9412 783.71L27.343 784.196C29.3319 781.73 28.3627 776.839 29.9783 774.993C30.2078 776.503 29.9697 777.41 31.2362 778.371L32.2476 778.348C34.3737 790.194 36.2302 802.159 38.8216 813.911C46.6948 849.616 57.8202 884.064 70.8021 918.187L68.5974 917.239C68.2551 917.957 67.6942 919.012 67.7021 919.794C67.7136 920.934 71.5125 937.326 72.2309 939.336C77.1001 952.955 85.0801 965.457 91.86 978.166C94.387 982.904 97.4819 987.649 98.9291 992.828C99.0165 993.141 99.1147 993.45 99.2035 993.762C99.2569 993.95 99.3049 994.138 99.3555 994.327C107.445 1000.91 103.157 1001.05 106.44 1005.47C109.187 1009.15 114.615 1009.8 115.346 1014.99L112.43 1014.85L112.043 1015.36C120.922 1026.88 131.331 1040.33 134.774 1054.68C134.525 1054.43 134.259 1054.2 134.028 1053.93C125.955 1044.68 119.696 1033.28 113.078 1022.94C109.087 1016.7 104.592 1010.81 100.635 1004.55C94.3693 994.654 89.1938 984.601 83.7138 974.308C80.0683 967.46 76.0383 960.694 72.7829 953.656C67.762 942.802 64.1116 931.657 59.7367 920.586C56.1003 911.384 51.1521 904.074 51.2715 894.053C49.9886 897.033 48.4717 904.305 45.8093 906.077C45.4653 903.27 47.7002 903.477 47.6249 900.586C46.2552 899.308 44.751 898.266 44.4098 896.328C45.8164 896.073 46.767 896.958 48.0013 897.619L48.4976 896.353L48.9558 895.222C48.2264 894.85 47.4903 894.485 46.7844 894.069C44.7036 892.842 43.8889 892.709 43.2817 890.337C43.7543 889.5 44.0158 889.112 44.8404 888.562C45.0523 888.42 45.277 888.299 45.4952 888.168C44.0969 884.391 40.5962 879.552 40.0189 875.743C39.7751 874.134 41.8541 871.614 40.9603 869.812C39.8221 867.518 36.2832 866.513 35.7302 864.103C37.1402 863.69 38.1553 864.456 39.4885 864.993C39.2504 862.786 37.5163 862.257 37.0717 860.155C38.1944 859.348 38.9383 858.87 39.5207 857.59C38.8026 856.266 38.2511 855.916 36.9248 855.229L36.1651 855.613L38.131 857.572C36.5218 858.073 35.3356 858.561 33.8883 859.468C33.7215 861.315 34.399 861.629 35.4392 863.056C34.01 862.03 33.4081 861.488 32.7403 859.848C33.1067 858.111 33.4463 857.955 34.7496 856.705C33.2891 857.251 32.5616 857.586 30.9867 857.622C30.2027 852.925 36.2703 852.309 37.5638 848.458C35.7749 846.385 32.966 847.581 30.9624 845.641L31.2322 844.882L36.1644 846.014L36.7635 845.392L31.8971 843.136C31.869 841.714 31.8212 842.276 32.0272 840.874C32.0752 840.548 32.1309 840.223 32.1828 839.897L31.1413 839.918L30.2552 842.963L29.51 842.874C28.5598 839.667 25.2824 829.787 26.2778 826.757C27.8867 825.996 29.4053 825.501 30.3206 823.876L29.8627 823.294C28.3237 824.563 26.8559 826.167 24.802 826.408C24.1242 825.058 24.4039 824.384 24.5074 822.907C26.1581 821.502 28.2154 820.473 30.0894 819.379C28.3804 816.757 26.1774 814.689 23.9749 812.49L22.2125 812.596C21.4614 809.469 20.3022 803.324 21.3285 800.305C22.6397 800.893 23.437 801.624 24.8543 801.193C23.2566 799.334 21.3477 799.904 19.6848 798.637C18.3124 797.592 19.9491 790.579 19.512 788.748C19.2963 787.846 18.181 786.395 17.6939 785.533C17.7257 783.805 18.0691 783.698 18.9982 782.32L20.2475 782.256C21.114 783.593 19.7686 784.11 20.0451 785.672C21.3778 784.749 20.9429 784.085 21.7748 782.908C22.1908 782.319 23.8986 781.976 24.2663 781.387C26.0656 778.506 21.5302 762.387 27.375 753.039L27.692 753.646L28.4497 752.74Z"/><path fill="white" fill-opacity="0.17254902" transform="matrix(0.290909 0 0 0.29142 -0.00012207 -1.49012e-08)" d="M1309.81 947.139C1311.98 944.131 1313.26 941.319 1314.77 937.959C1315.82 937.973 1315.82 938.167 1316.57 937.608C1317.96 936.583 1319.1 934.472 1319.08 932.742C1319.08 932.479 1319.01 932.22 1318.98 931.96L1319.3 933.121L1319.25 932.005L1317.33 932.156L1316.99 930.929C1319.31 926.088 1324.32 910.805 1326.83 907.962C1327.48 908.197 1328.14 908.42 1328.8 908.631C1329.03 906.566 1329.3 904.512 1329.55 902.451C1329.89 899.761 1330.28 898.433 1332.14 896.388C1333.38 895.019 1334.12 894.256 1334.7 892.515C1334.06 888.355 1334.5 887.638 1336.87 884.166C1337.94 882.601 1339.38 881.048 1339.47 879.068C1339.71 873.696 1342.86 873.377 1345.06 869.096L1346.91 865.571C1343.81 876.391 1341.22 887.478 1337.8 898.185C1333.21 912.565 1324.3 933.67 1317.25 946.885C1315.18 950.772 1314.79 955.468 1313.19 959.602C1308.98 970.548 1302.87 982.527 1296.63 992.441C1295.92 988.85 1296.67 986.583 1294.27 983.589C1298.11 975.37 1308.08 959.764 1308.8 951.54C1308.91 950.291 1308.96 949.285 1309.42 948.1C1309.54 947.777 1309.68 947.459 1309.81 947.139Z"/><defs><linearGradient id="gradient_2" gradientUnits="userSpaceOnUse" x1="1297.8425" y1="975.90704" x2="1289.6116" y2="972.37177"><stop offset="0" stop-color="#CBCBCB" stop-opacity="0.27450982"/><stop offset="1" stop-color="#BCB6B2" stop-opacity="0.36862746"/></linearGradient></defs><path fill="url(#gradient_2)" transform="matrix(0.290909 0 0 0.29142 -0.00012207 -1.49012e-08)" d="M1310.86 928.885C1311.14 931.19 1310.75 933.219 1310.86 935.491C1310.97 937.893 1310.4 940.087 1309.6 942.319C1308.98 944.065 1309.34 945.411 1309.81 947.139C1309.68 947.459 1309.54 947.777 1309.42 948.1C1308.96 949.285 1308.91 950.291 1308.8 951.54C1308.08 959.764 1298.11 975.37 1294.27 983.589C1293.4 984.383 1293.33 984.255 1293.04 985.445C1292.71 986.742 1281.35 1005.75 1280.05 1007.6C1278.68 1009.54 1276.39 1011.07 1274.5 1012.47C1274.66 1013.37 1274.85 1014.14 1275.12 1015.02C1274.13 1016.44 1273.46 1017.19 1271.7 1017.56C1270.84 1017.74 1269.66 1017.64 1268.81 1017.63C1267.68 1019.16 1266.54 1021.53 1264.69 1021.89L1263.13 1020.02C1268.21 1011.49 1273.67 1003.17 1278.55 994.514C1290.39 973.182 1301.17 951.279 1310.86 928.885Z"/><defs><linearGradient id="gradient_3" gradientUnits="userSpaceOnUse" x1="497.05145" y1="1313.402" x2="499.42175" y2="1305.9106"><stop offset="0" stop-color="#B2B1B0" stop-opacity="0.38039216"/><stop offset="1" stop-color="#9F9B9A" stop-opacity="0.46666667"/></linearGradient></defs><path fill="url(#gradient_3)" transform="matrix(0.290909 0 0 0.29142 -0.00012207 -1.49012e-08)" d="M440.545 1285.72C475.51 1298.18 509.165 1309.63 545.543 1317.69C543.053 1318.82 541.495 1318.54 538.889 1318.18C537.62 1318.01 538.156 1317.97 537.127 1318.23C539.012 1318.65 540.828 1318.85 542.441 1319.95C541.13 1321.09 540.217 1320.91 538.556 1320.75C536.179 1320.51 533.765 1319.96 531.412 1319.54L530.965 1320.2L531.358 1322.08C530.086 1323.21 528.711 1322.96 527.035 1322.85C526.131 1322.79 525.222 1322.6 524.333 1322.44C521.626 1320.91 518.051 1321.29 515.17 1319.88C512.431 1318.54 511.23 1314.5 508.813 1312.82C507.606 1311.99 507.057 1312.26 505.745 1312.55C502.595 1311.91 498.416 1309.53 495.455 1309.47C493.915 1309.43 492.669 1310.28 490.974 1310.06C490.406 1309.19 489.583 1307.64 488.751 1307.04C487.23 1305.93 465.689 1299.06 462.029 1297.63C455.351 1295 447.198 1291.17 440.939 1287.69L440.545 1285.72Z"/><defs><linearGradient id="gradient_4" gradientUnits="userSpaceOnUse" x1="505.15857" y1="1317.5746" x2="506.10345" y2="1314.0181"><stop offset="0" stop-color="#B4B3B2" stop-opacity="0.35294119"/><stop offset="1" stop-color="#ACAAA9" stop-opacity="0.40000001"/></linearGradient></defs><path fill="url(#gradient_4)" transform="matrix(0.290909 0 0 0.29142 -0.00012207 -1.49012e-08)" d="M492.162 1315.42C481.561 1311.01 470.626 1307.44 460.12 1302.81L460.332 1302.4C461.628 1302.47 462.631 1302.46 463.755 1303.18C468.687 1306.31 471.561 1304.41 476.852 1305.19C476.88 1305.49 476.938 1306.35 477.059 1306.6C477.987 1308.53 481.919 1306.45 483.961 1307.43L482.55 1308.53L482.508 1309.16C483.027 1309.59 483.477 1310 484.038 1310.36C485.442 1311.26 492.904 1313.7 494.495 1313.4L493.158 1311.66C496.934 1313.48 500.099 1311.52 503.779 1312.64C504.139 1312.75 504.491 1312.88 504.847 1313.01L505.745 1312.55C507.057 1312.26 507.606 1311.99 508.813 1312.82C511.23 1314.5 512.431 1318.54 515.17 1319.88C518.051 1321.29 521.626 1320.91 524.333 1322.44C523.701 1322.82 523.069 1323.2 522.465 1323.61C519.995 1325.32 502.345 1317.18 498.538 1316.22C496.48 1315.7 494.273 1315.58 492.162 1315.42Z"/><path fill="white" fill-opacity="0.090196081" transform="matrix(0.290909 0 0 0.29142 -0.00012207 -1.49012e-08)" d="M29.246 758.111L32.2476 778.348L31.2362 778.371C29.9697 777.41 30.2078 776.503 29.9783 774.993C28.3627 776.839 29.3319 781.73 27.343 784.196L26.9412 783.71C25.9423 775.278 25.0858 767.144 27.0835 758.786C27.2579 758.846 27.4561 758.861 27.6066 758.967C27.9343 759.2 28.1968 759.513 28.4919 759.785L29.246 758.111Z"/></svg>