<?xml version="1.0" encoding="utf-8" ?><svg xmlns="http://www.w3.org/2000/svg" xmlns:xlink="http://www.w3.org/1999/xlink" width="125" height="37" viewBox="0 0 500 133"><path fill="#0599B5" transform="matrix(0.209732 0 0 0.210443 6.10352e-05 -7.62939e-06)" d="M512.504 216.447C529.24 216.164 546.145 218.979 560.246 228.54C586.897 246.609 596.066 273.248 601.798 303.412C603.892 314.431 606.031 325.494 606.558 336.724C607.926 365.888 601.466 402.936 584.736 427.339C572.018 445.891 553.276 458.997 531.04 463.093C501.671 468.503 477.074 457.312 453.48 441.171C453.861 467.058 453.934 492.949 453.7 518.838C453.883 529.148 454.168 539.455 454.553 549.759C433.808 551.679 411.895 550.363 391.059 550.273C390.54 440.81 390.815 331.345 391.882 221.887C410.698 221.185 429.761 221.65 448.588 222.148C449.766 229.713 449.589 237.49 449.711 245.13C468.509 229.581 487.741 218.309 512.504 216.447ZM453.552 386.836C461.975 398.845 472.199 408.989 487.204 411.647C493.297 412.726 499.406 412.745 505.476 411.557C518.944 407.282 529.594 401.593 536.315 388.536C548.297 365.255 548.867 326.913 540.867 302.343C536.863 290.047 529.091 278.062 517.29 272.067C508.727 267.716 499.093 267.013 489.678 268.146C474.034 271.981 461.885 280.675 452.387 293.868C452.703 324.816 451.411 355.935 453.552 386.836Z"/><path fill="#0599B5" transform="matrix(0.209732 0 0 0.210443 6.10352e-05 -7.62939e-06)" d="M220.803 130.479C221.783 130.459 222.764 130.447 223.745 130.444C258.5 130.329 297.142 138.441 322.603 163.834C341.454 182.634 349.555 204.95 349.525 231.32C328.757 232.1 307.877 231.758 287.095 231.596C286.519 218.172 282.878 205.759 272.887 196.268C260.72 184.71 244.053 180.528 227.658 180.9C211.358 181.27 193.412 185.152 181.79 197.429C175.498 204.076 171.034 212.704 171.316 222.012C172.343 255.943 243.155 269.761 268.689 279.915C288.319 287.721 309.608 298.355 325.115 312.961C341.546 328.439 351.084 348.027 351.699 370.7C352.348 394.642 345.836 415.35 329.037 432.921C303.893 459.222 264.285 465.079 229.614 465.873C194.884 466.034 159.173 453.978 133.224 430.731C110.211 410.116 107.215 386.353 105.648 357.359C124.633 354.498 145.776 356.156 164.899 357.312C166.334 372.086 169.654 385.988 181.026 396.382C195.398 409.519 218.278 414.184 237.173 413.251C252.534 412.493 269.025 408.533 279.663 396.666C285.588 390.056 289.443 380.825 288.915 371.861C287.241 343.461 244.348 333.627 222.384 326.672C210.579 322.934 198.828 319.11 187.332 314.486C169.544 307.33 153.324 298.429 138.877 285.704C121.955 270.8 110.184 250.586 108.807 227.788C107.476 205.728 114.24 184.871 128.963 168.368C151.509 143.098 188.043 132.221 220.803 130.479Z"/><path fill="#0599B5" transform="matrix(0.209732 0 0 0.210443 6.10352e-05 -7.62939e-06)" d="M1815.58 216.348C1843.42 214.36 1873.02 222.086 1895.04 239.445C1921.6 260.389 1932.12 289.572 1935.96 322.186C1940.12 357.629 1933.13 398.482 1910.42 426.997C1891.76 450.441 1865.92 461.574 1836.83 464.972C1812.25 467.175 1784.8 460.241 1764.46 446.234C1737.18 427.442 1724.24 398.286 1718.42 366.501C1711.99 331.472 1716.89 289.365 1737.51 259.557C1757.23 231.068 1783.11 222.222 1815.58 216.348ZM1834.23 414.042C1848.09 410.924 1857.94 405.47 1865.7 393.212C1879.91 370.76 1881.41 336.346 1875.56 310.871C1872.26 296.5 1864.73 281.381 1851.83 273.383C1842.59 267.662 1831.81 266.651 1821.18 267.358C1808.72 269.138 1799.01 273.455 1791.25 283.728C1775.93 304.005 1773.58 334.521 1777.12 358.854C1779.73 376.71 1786.71 395.438 1801.62 406.573C1811.85 414.204 1821.98 414.176 1834.23 414.042Z"/><path fill="#0599B5" transform="matrix(0.209732 0 0 0.210443 6.10352e-05 -7.62939e-06)" d="M2010.69 222.512C2012.42 233.052 2015.89 243.549 2018.15 254.027C2023.73 279.89 2028.9 305.666 2033.62 331.699C2035.08 339.761 2038.38 367.223 2041.88 372.46C2044.95 372.524 2047.22 363.776 2047.99 361.005C2056.09 332.175 2064.82 303.534 2072.74 274.653C2076.53 260.814 2079.05 246.512 2083.32 232.833C2084.33 229.585 2085.44 225.564 2088.11 223.277C2098.41 218.881 2119.01 221.728 2130.29 222.691C2146.03 249.837 2166.37 361.873 2175.33 372.03C2180.78 364.723 2180.99 351.393 2183.06 342.5C2187.13 324.961 2192.17 307.663 2195.87 290.006C2200.61 267.423 2203.93 244.51 2209.77 222.171C2228.51 221.142 2247.8 222.03 2266.58 222.433L2250.76 290.862C2233.57 346.855 2221.97 404.787 2206.52 461.275C2189.89 461.487 2173.26 461.518 2156.63 461.368C2149.65 446.348 2145.94 428.054 2141.34 412.092C2131.83 379.073 2122.4 344.944 2109.21 313.225C2105.14 328.922 2099.02 343.973 2094.18 359.426C2083.63 393.145 2073.65 427.065 2061.95 460.424C2046.62 461.997 2029.98 460.865 2014.56 460.445C2011.11 450.813 2009.2 439.873 2006.6 429.927C2000.06 404.937 1993.84 380.014 1987.97 354.854C1978.73 315.175 1968.13 276.177 1957.25 236.942C1956.17 233.018 1953.28 225.896 1955.21 222.472C1973.7 222.206 1992.2 222.219 2010.69 222.512Z"/><path fill="#0599B5" transform="matrix(0.209732 0 0 0.210443 6.10352e-05 -7.62939e-06)" d="M1131.49 123.407C1151.5 122.998 1171.56 123.25 1191.57 123.203C1192.62 147.329 1191.86 171.801 1191.92 195.974C1192.26 232.717 1192.35 269.462 1192.19 306.206C1200.08 298.988 1206.76 290.352 1213.76 282.277C1230.96 262.307 1247.68 241.934 1263.93 221.174C1277.48 220.605 1330.72 219.188 1340.79 222.588C1341.06 224.939 1340.33 226.103 1338.87 227.953C1332.05 236.584 1323.33 244.554 1315.9 252.74C1296.05 274.613 1275.54 296.986 1257.5 320.357C1280.48 354.589 1303.33 389.182 1327.41 422.644C1335.38 435.605 1344.74 447.735 1353.04 460.508C1330.19 461.322 1307.09 460.811 1284.2 461.096C1272.78 450.971 1264.1 434.709 1255.78 422.016C1241.99 400.964 1228.16 379.272 1211.2 360.602C1205.15 368.63 1197.44 375.237 1191.97 383.743C1192.49 409.227 1191.79 434.762 1191.89 460.257C1171.29 461.034 1150.65 460.142 1130.03 461.128C1129.97 460.114 1129.93 459.1 1129.9 458.085C1128.98 431.477 1127.62 129.128 1129.7 125.333C1130.02 124.75 1131.02 123.918 1131.49 123.407Z"/><path fill="#0599B5" transform="matrix(0.209732 0 0 0.210443 6.10352e-05 -7.62939e-06)" d="M982.242 216.406C1006.64 216.134 1032.85 220.081 1053.58 233.867C1066.8 242.655 1075.77 255.97 1080.19 271.108C1087.68 296.813 1084.69 324.938 1084.85 351.406C1085.09 388.479 1085.79 423.938 1093.18 460.437C1080.42 461.013 1046.52 464.145 1035.99 458.823C1031.35 456.482 1029.06 446.535 1027.42 441.852C1019.48 447.357 1011.09 452.195 1002.35 456.316C978.898 467.093 953.013 468.774 928.636 459.667C910.527 452.902 897.938 440.352 890.053 422.899C885.871 412.32 882.975 401.162 882.917 389.72C882.824 371.557 891.76 354.84 904.329 342.159C934.437 311.781 984.51 314.008 1023.93 313.961C1024.64 304.247 1025.25 295.307 1021.2 286.123C1017.48 277.701 1010.78 271.15 1002.13 267.912C990.922 263.715 975.847 263.692 964.901 268.713C953.519 273.934 949.034 282.972 944.895 294.077C934.852 294.84 894.081 296.428 888.154 291.272C886.899 290.18 886.898 288.868 886.794 287.298C885.981 274.973 897.109 256.192 904.968 247.227C924.57 224.865 953.935 218.254 982.242 216.406ZM974.976 416.46C988.058 417.079 1002.8 414.577 1012.83 405.454C1021.08 397.957 1024 387.731 1024.42 376.891C1024.71 369.525 1024.42 362.087 1024.28 354.718C1014.33 354.028 1004.43 354.23 994.467 354.412C978.818 355.731 961.671 357.954 950.827 370.68C946.078 376.253 943.197 383.492 943.885 390.877C944.533 397.829 948.243 403.842 953.59 408.214C960.149 413.577 966.8 415.093 974.976 416.46Z"/><path fill="#0599B5" transform="matrix(0.209732 0 0 0.210443 6.10352e-05 -7.62939e-06)" d="M737.36 217.451C744.723 216.788 752.392 216.615 759.776 216.924C785.629 218.004 809.1 227.754 826.761 246.954C854.869 277.511 856.628 320.146 854.967 359.297C803.672 359.461 752.204 358.563 700.934 359.815C705.982 377.491 712.009 394.942 728.578 405.086C748.356 417.194 775.836 416.115 795.235 403.559C801.396 399.572 809.567 391.492 816.518 389.8C821.071 392.526 824.598 397.471 828.054 401.455C834.642 408.314 841.902 414.504 847.671 422.116C829.306 444.43 807.572 459.331 778.582 463.951C747.192 468.953 713.592 462.446 687.681 443.559C660.065 423.427 647.006 395.418 641.817 362.332C636.733 329.914 643.02 286.021 662.644 259.163C681.283 233.655 707.009 222.176 737.36 217.451ZM703.437 314.246C721.009 315.684 739.108 314.972 756.75 315.026C769.907 315.044 784.116 316.035 797.124 314.085C793.613 298.569 788.703 280.928 774.351 271.968C764.521 265.832 753.883 266.376 742.837 267.297C729.692 270.717 719.76 276.337 712.693 288.31C708.147 296.013 705.353 305.539 703.437 314.246Z"/><path fill="#0599B5" transform="matrix(0.209732 0 0 0.210443 6.10352e-05 -7.62939e-06)" d="M1408.75 138.485C1466.82 137.766 1525.47 137.341 1583.51 138.985C1583.62 155.762 1583.53 172.541 1583.23 189.317C1550.09 191.748 1515.8 190.078 1482.51 190.02C1468.4 189.996 1452 188.364 1438.19 191.578C1434.38 196.488 1435.83 264.822 1435.45 276.508C1478.28 277.684 1521.4 276.649 1564.27 276.885C1563.74 293.935 1563.26 310.998 1564.36 328.033C1557.37 328.378 1550.26 328.217 1543.25 328.29C1507.97 328.334 1472.23 327.195 1437.01 328.819C1436.11 344.901 1436.63 361.088 1436.6 377.192C1436.35 404.949 1436.43 432.708 1436.84 460.463C1416.23 461.907 1394.53 460.956 1373.84 460.733C1372.73 419.987 1373.51 379.143 1373.59 338.387L1372.84 138.897C1384.71 138.173 1396.85 138.585 1408.75 138.485Z"/><path fill="#0599B5" transform="matrix(0.209732 0 0 0.210443 6.10352e-05 -7.62939e-06)" d="M1618.5 123.291C1637.86 122.947 1657.3 123.463 1676.66 123.561C1676.92 152.804 1678.03 456.617 1676 459.999C1675.66 460.557 1673.93 460.773 1673.25 460.94L1617.26 460.858C1616.03 433.006 1614.52 130.365 1618.5 123.291Z"/></svg>