<?xml version="1.0" encoding="utf-8" ?><svg xmlns="http://www.w3.org/2000/svg" xmlns:xlink="http://www.w3.org/1999/xlink" width="500" height="150" viewBox="0 0 500 150"><path fill="#0299B5" transform="scale(0.135281 0.135379)" d="M1481.87 483.453C1502.41 483.16 1523.08 485.863 1540.72 497.008C1569.21 515.001 1583.48 547.164 1590.5 578.954C1601.3 627.821 1598.75 689.326 1571.07 732.268C1557.29 753.641 1535.49 768.57 1510.58 773.688C1472.69 781.709 1446.28 769.829 1415.08 749.578L1415.37 838.938L1415.68 876.832C1392.88 878.041 1364.29 878.384 1341.6 876.598C1340.76 844.297 1341.65 811.912 1341.47 779.596L1341.95 489.821C1364.61 489.733 1387.4 489.144 1410.04 489.995C1410.3 499.875 1410.45 509.759 1410.51 519.643C1431.14 498.487 1451.69 485.355 1481.87 483.453ZM1415.41 685.009C1423.25 698.33 1434.09 709.439 1449.52 713.467C1459.24 716.001 1470.13 715.949 1479.95 713.931C1494.54 709.426 1505.47 701.615 1512.86 687.904C1527.07 661.539 1527.21 614.145 1518.53 586.147C1513.88 571.145 1505.47 556.873 1491.08 549.435C1480.98 544.214 1470.22 543.363 1459.07 544.339C1438.61 547.967 1426.44 558.526 1414.72 574.911C1415.44 611.564 1414.14 648.401 1415.41 685.009Z"/><path fill="#0299B5" transform="scale(0.135281 0.135379)" d="M1044.36 566.142C1024.62 551.03 1011.02 526.928 1007.7 502.358C1004.21 476.562 1011.37 452.158 1027.13 431.563C1049.83 401.898 1086.45 387.786 1122.48 383.052C1166.4 377.282 1216.1 385.529 1251.84 412.97C1273.74 429.788 1288.03 453.631 1291.49 481.122C1292.31 487.628 1292.67 494.474 1292.63 501.031C1267.85 501.063 1242.65 501.966 1217.91 500.855C1216.51 483.82 1213.1 469.162 1199.44 457.509C1183.62 444.017 1161.7 440.369 1141.54 442.152C1123.64 443.735 1102.85 449.586 1090.97 463.867C1083.99 472.252 1081.2 482.795 1082.33 493.58C1083.4 503.795 1090.39 512.202 1098.16 518.377C1118.97 534.914 1155.52 542.787 1181.11 551.931C1202.62 559.615 1223.81 568.89 1243.04 581.298C1249.24 585.298 1258.75 591.21 1263.21 597.125C1283.73 616.335 1294.4 639.042 1295.4 667.348C1296.28 692.44 1288.01 717.722 1270.75 736.182C1243.04 765.803 1200.28 775.658 1161.17 776.755C1133.47 777.531 1100.04 773.996 1074.92 761.412C1059.64 755.906 1043.98 744.755 1032.43 733.442C1006.81 708.355 1004.03 683.513 1003.61 649.425C1026.21 648.573 1053.02 647.489 1075.48 649.699C1075.85 659.291 1076.02 667.908 1079.66 677.001C1085.65 691.95 1099.07 702.377 1113.54 708.506C1136.58 718.258 1168.15 719.299 1191.41 709.706C1203.22 704.839 1213.44 696.085 1218.3 684.078C1221.99 674.979 1222.16 665.511 1218.15 656.503C1208.33 634.399 1181.53 626.598 1160.73 618.761C1152.93 617.309 1144.42 613.855 1136.82 611.383C1104.03 600.713 1070.94 588.839 1044.36 566.142Z"/><path fill="#0299B5" transform="scale(0.135281 0.135379)" d="M1074.92 761.412L1075.82 759.706C1082.43 756.461 1115.08 771.831 1125.33 771.431L1125.61 770.491L1119.25 769.406L1120.27 768.515C1126.14 768.249 1138.19 769.114 1143.51 771.373C1140.75 771.91 1138.13 772.423 1135.51 773.488C1152.13 774.015 1169.79 774.705 1186.22 771.848C1181.61 771.163 1173.09 773.172 1169.42 770.912C1188.17 768.447 1212.81 765.842 1230.5 759.548C1236.62 757.371 1242.52 753.902 1248.26 750.885C1251.57 742.468 1256.75 742.052 1263.09 736.926C1268.29 732.718 1272.44 727.547 1275.82 721.8C1280.42 713.977 1282.78 705.47 1285.9 697.011C1286.88 694.342 1288.59 691.858 1289.39 689.154C1290.57 685.12 1288.22 680.109 1290.25 676.541L1292.03 676.201C1293.42 674.402 1292.94 673.472 1292.79 671.256L1290.18 670.894C1288.45 666.458 1290.79 661.372 1290 656.783C1288.96 650.747 1281.66 631.757 1278.86 625.236C1276.76 620.355 1274.39 615.557 1271.34 611.196C1268.4 607.004 1261.67 602.625 1260.69 597.861L1263.21 597.125C1283.73 616.335 1294.4 639.042 1295.4 667.348C1296.28 692.44 1288.01 717.722 1270.75 736.182C1243.04 765.803 1200.28 775.658 1161.17 776.755C1133.47 777.531 1100.04 773.996 1074.92 761.412Z"/><path fill="#0299B5" transform="scale(0.135281 0.135379)" d="M1044.36 566.142L1045.23 563.799C1050.44 564.74 1057.3 573.867 1060.86 573.702C1068.36 573.355 1087.72 584.625 1094.96 588.775C1097.58 590.274 1100.19 592.794 1102.93 593.852C1104.31 594.387 1106.23 593.295 1107.68 593.435C1109.26 593.588 1152.04 609.5 1153.45 610.402L1149.69 612.397C1153.56 614.235 1156.74 612.055 1160.25 615.234C1162.54 617.314 1166.69 616.333 1168.97 618.457C1166.2 618.975 1163.52 618.845 1160.73 618.761C1152.93 617.309 1144.42 613.855 1136.82 611.383C1104.03 600.713 1070.94 588.839 1044.36 566.142Z"/><path fill="#0299B5" transform="scale(0.135281 0.135379)" d="M3011.32 485.623C3026.45 481.985 3044.93 483.18 3060.17 485.511C3092.74 490.474 3120.76 505.319 3140.53 532.081C3166.59 567.352 3173.3 616.84 3166.78 659.385C3161.09 696.55 3146.83 730.638 3115.79 753.337C3102.53 763.029 3085.36 771.262 3068.98 773.616C3050.03 777.653 3030.47 777.853 3011.44 774.203C2976.12 767.306 2949.52 750.046 2929.44 720.224C2917.12 699.119 2909.42 674.345 2906.53 650.128C2901.49 608.075 2910.16 560.75 2936.85 526.975C2954.76 504.315 2982.74 489.022 3011.32 485.623ZM3048.17 716.643C3063.17 713.417 3074.35 706.687 3082.88 693.576C3100.23 666.898 3101.27 624.94 3094.56 594.834C3090.87 578.265 3083.92 561.092 3068.96 551.633C3057.29 544.248 3042.66 542.253 3029.09 543.293C3013.24 546.533 3001.74 553.189 2992.52 566.899C2975.11 592.826 2975.6 633.061 2981.7 662.443C2985.53 680.82 2993.45 698.631 3009.65 709.337C3021.86 717.41 3034.08 718.336 3048.17 716.643Z"/><path fill="#0299B5" transform="scale(0.135281 0.135379)" d="M2929.44 720.224L2929.17 713.561L2930.2 712.563L2929.67 713.086L2930.77 712.789C2930.14 713.803 2929.27 714.798 2929.21 716.006L2932.57 714.929C2938.8 725.599 2944.15 733.385 2952.81 742.406L2956.62 742.075C2957.88 744.15 2958.92 746.117 2959.77 748.394C2964.39 749.817 2969.48 750.947 2973.46 753.779L2974 754.996L2970.17 755.463C2971.85 756.969 2972.88 758.104 2975.33 758.028C2976.55 757.99 2977.9 757.552 2979.08 757.23L2980.59 758.144L2979.33 759.523C2984.4 764.595 3006.16 762.797 3009.38 767.749L3008.24 769.436C3009.98 771.521 3010.84 771.312 3013.43 771.842C3014.43 771.229 3015.3 770.581 3016.2 769.827C3023.53 770.147 3030.92 770.846 3038.25 770.887C3048.06 770.943 3057.77 769.207 3067.38 771.656L3068.98 773.616C3050.03 777.653 3030.47 777.853 3011.44 774.203C2976.12 767.306 2949.52 750.046 2929.44 720.224Z"/><path fill="#0299B5" transform="scale(0.135281 0.135379)" d="M3011.32 485.623C3026.45 481.985 3044.93 483.18 3060.17 485.511L3058.48 487.562C3047.75 487.402 3039.47 484.194 3028.46 487.64C3021.49 489.823 3014.55 489.745 3007.33 489.946L3006.74 489.2L3007.19 488.903C3008.7 487.909 3010 486.852 3011.32 485.623Z"/><path fill="#0299B5" transform="scale(0.135281 0.135379)" d="M3490.2 489.827C3513.02 489.788 3535.88 489.45 3558.7 490.085C3554.6 504.714 3551.84 519.697 3547.96 534.397L3488.9 762.36L3486.13 771.294C3466.32 771.634 3446.51 771.705 3426.7 771.506C3421.44 764.962 3418.01 747.145 3415.46 738.632C3405.86 706.08 3396.05 673.591 3386.03 641.168C3381.88 627.734 3378.6 611.661 3372.33 599.148L3370.69 599.43C3366.91 603.917 3365.02 617.158 3363.36 623.15C3354.14 656.493 3343.07 688.974 3332.45 721.869C3328.33 734.637 3324.94 747.628 3320.77 760.373C3319.82 763.266 3318.21 769.416 3315.29 770.624C3310.39 772.653 3264.88 772.609 3259.52 770.279C3253.22 759.333 3247.43 725.831 3243.87 711.824C3230.24 656.11 3216.06 600.534 3201.31 545.105C3196.37 526.856 3192.86 507.807 3186.69 489.967C3209.6 489.836 3232.5 489.867 3255.41 490.059C3263.59 522.347 3270.27 555.399 3276.67 588.088C3278.87 599.351 3289.45 665.822 3293.37 672.403C3294.53 671.425 3294.81 670.27 3295.21 668.855L3331.24 538.571C3335.13 524.695 3338.75 502.619 3345.75 490.923C3346.63 490.462 3347.25 490.114 3348.25 489.96C3354.62 488.977 3393.95 488.818 3397.49 491.569C3405.48 497.766 3444.4 665.282 3451.15 670.577C3451.73 669.745 3486.5 505.706 3490.2 489.827Z"/><path fill="#0299B5" transform="scale(0.135281 0.135379)" d="M3426.7 771.506C3426.82 768.751 3426.35 763.758 3428.09 761.774L3429.04 763.086L3428.23 766.184C3440.39 763.193 3464.94 768.971 3476.1 765.306C3479.08 764.326 3481.88 763.4 3484.31 761.311C3488.95 757.305 3487.01 752.775 3487.49 747.408L3488.73 746.961C3488.62 752.112 3488.71 757.215 3488.9 762.36L3486.13 771.294C3466.32 771.634 3446.51 771.705 3426.7 771.506Z"/><path fill="#0299B5" transform="scale(0.135281 0.135379)" d="M2279.77 372.34C2282.65 372.856 2285.27 372.795 2287.49 374.771C2288.66 393.346 2287.69 412.399 2287.72 431.04L2287.97 541.202C2288.02 557.13 2287.12 573.755 2288.36 589.59C2318.57 558.174 2343.44 521.576 2373.03 489.53C2403.93 489.576 2435.7 488.086 2466.5 490.037L2364.19 605.725C2371.91 615.548 2378.53 626.462 2385.47 636.855C2397.92 655.65 2410.53 674.33 2423.32 692.892L2459.02 743.455C2465.4 752.454 2473.02 761.735 2478.15 771.482C2461.27 772.156 2444.31 771.933 2427.42 771.988C2418.4 772.017 2408.45 772.846 2399.52 771.742C2396.68 771.39 2394.81 771.137 2392.65 769.144C2384.86 761.955 2378.36 749.761 2372.26 740.913C2353.13 713.141 2333.38 680.512 2311.76 655.089C2303.12 662.608 2296.42 672.08 2287.95 679.675L2287.77 771.556C2262.78 772.123 2237.58 772.301 2212.6 771.809L2212.5 661.02C2212.48 644.98 2214.18 626.522 2212.07 610.693C2213.13 589.095 2212.27 566.933 2212.61 545.267C2213.43 487.942 2213.84 430.613 2213.86 373.282C2228.88 372.637 2268.25 375.627 2279.77 372.34Z"/><path fill="#0299B5" transform="scale(0.135281 0.135379)" d="M1995.59 575.434C1985.19 575.188 1932.02 575.821 1926.79 572.084C1923.78 560.705 1931.76 543.752 1937.42 533.996C1951.24 510.18 1976.07 495.219 2002.21 488.318C2038.47 478.745 2087.17 481.5 2119.99 500.817C2139.82 512.489 2152.49 529.605 2158.16 551.898C2163.07 571.207 2162.25 590.722 2162.19 610.467C2162.04 656.753 2157.14 728.996 2172.98 771.105C2161.69 771.819 2108.58 774.08 2101.53 769.886C2097.04 764.017 2095.16 755.808 2092.75 748.862C2084.31 755.37 2074.39 763.275 2064.07 766.538C2049.35 773.8 2033.33 776.403 2017.04 776.603C1992.44 776.903 1965.76 770.171 1947.73 752.521C1936.58 745.702 1928.11 727.473 1925.23 715.472C1919.79 692.821 1920.78 669.063 1933.18 648.876C1948.12 624.571 1971.44 611.075 1998.72 604.592C2028.87 597.427 2058.18 600.336 2088.58 599.584C2089.77 583.961 2090.15 567.306 2079.14 554.71C2071.17 545.589 2059.54 542.163 2047.8 541.474C2034.09 540.668 2019.06 542.666 2008.51 552.256C2001.4 558.722 1998.6 566.648 1995.59 575.434ZM2033.8 720.537C2050.14 719.894 2069.07 715.656 2080.54 703.072C2093.35 689.007 2088.99 663.425 2089.18 645.78C2076.79 645.75 2064.4 645.951 2052.02 646.383C2034.65 648.007 2014.24 650.876 2002.28 665.091C1996.52 671.925 1994.05 680.38 1995.01 689.252C1996 698.258 2000.6 706.477 2007.75 712.031C2015.45 718.125 2024.25 719.878 2033.8 720.537Z"/><path fill="#0299B5" transform="scale(0.135281 0.135379)" d="M1947.73 752.521L1948.73 750.282C1954.96 750.327 1962.25 759.728 1968.29 761.848C1971.54 762.989 1972.79 760.922 1975.99 763.505C1975.11 764.065 1974.6 764.274 1973.56 764.372C1977.73 767.206 1984.3 764.655 1989.23 766.936L1989.32 768.026L1986.99 769.18C1999.44 769.656 2012.9 771.704 2025.28 770.566C2035.04 769.669 2050.89 762.865 2059.27 763.711C2060.98 763.884 2062.84 765.443 2064.07 766.538C2049.35 773.8 2033.33 776.403 2017.04 776.603C1992.44 776.903 1965.76 770.171 1947.73 752.521Z"/><path fill="#0299B5" transform="scale(0.135281 0.135379)" d="M1693.09 753.192C1663.7 734.192 1646.69 705.658 1639.38 671.82C1630.12 628.979 1634.12 575.898 1658.45 538.387C1675.9 511.926 1703.04 493.374 1734.03 486.726C1767.96 479.607 1807.59 482.708 1837.16 502.037C1866.38 521.131 1880.38 550.295 1887.25 583.716C1891.86 606.173 1890.87 629.073 1890.38 651.866C1829.93 652.31 1769.43 651.38 1708.98 652.215C1711.15 671.36 1718 689.356 1733.44 701.83C1748.1 713.681 1768.85 717.969 1787.32 715.821C1810.66 713.11 1826.17 701.847 1843.16 686.628C1855.81 699.841 1869.41 712.469 1881.8 725.842C1867.87 741.451 1850.91 760.477 1830.09 766.643C1822.79 769.524 1815.48 771.879 1807.82 773.59C1768.38 782.071 1727.19 774.747 1693.09 753.192ZM1710.58 599.61C1731.13 600.66 1751.92 599.999 1772.5 599.956C1787.99 599.981 1803.91 600.697 1819.33 599.385C1817.1 581.919 1813.44 563.407 1798.66 551.89C1787.06 542.856 1773.22 542.053 1759.17 543.258C1744.4 545.891 1732.44 552.068 1723.68 564.655C1716.66 574.75 1712.72 587.599 1710.58 599.61Z"/><path fill="#0299B5" transform="scale(0.135281 0.135379)" d="M1693.09 753.192L1693.79 750.701C1697.53 750.342 1731.52 766.728 1738.96 769C1748.33 771.858 1758.35 772.98 1768.1 773.527C1777.65 774.063 1788.19 774.556 1797.66 772.932C1806.3 771.452 1819.86 758.692 1828.58 765.309C1829.11 765.712 1829.61 766.182 1830.09 766.643C1822.79 769.524 1815.48 771.879 1807.82 773.59C1768.38 782.071 1727.19 774.747 1693.09 753.192Z"/><path fill="#0299B5" transform="scale(0.135281 0.135379)" d="M2501.17 391.666C2537.5 389.94 2574.56 391.448 2610.95 391.498C2657.58 391.563 2704.51 390.528 2751.1 392.026L2751.58 451.854C2696.84 452.838 2641.95 451.915 2587.2 452.196C2583.99 452.126 2580.45 451.592 2577.58 453.187C2575.74 457.597 2575.83 544.459 2576.52 552.964C2577.23 553.832 2577.71 554.494 2578.75 554.961C2598.08 553.799 2617.83 554.625 2637.2 554.637C2667.23 554.508 2697.27 554.611 2727.31 554.946C2727.15 575.037 2727.31 595.129 2727.78 615.215C2711.52 616.683 2694.47 615.704 2678.13 615.704C2644.41 615.537 2610.69 615.616 2576.97 615.941C2576.56 667.811 2576.57 719.685 2577.02 771.555C2552 772.69 2526.52 772.131 2501.48 771.783C2499.68 734.574 2501.02 696.577 2500.87 659.28L2501.17 391.666Z"/><path fill="#0299B5" transform="scale(0.135281 0.135379)" d="M2790.44 373.422C2813.99 373.29 2837.54 373.32 2861.08 373.514L2861.07 646.4L2860.78 734.277C2860.75 744.947 2862.24 757.509 2861.1 767.956C2860.83 770.424 2860.71 770.435 2858.87 771.944C2835.46 772.067 2812.06 772.069 2788.65 771.948L2788.71 511.32L2788.9 423.632C2788.93 408.224 2788.31 392.474 2789.21 377.104C2789.3 375.486 2789.49 374.736 2790.44 373.422Z"/><path fill="#0299B5" transform="scale(0.135281 0.135379)" d="M437.205 1022.95C438.516 992.232 437.581 961.231 437.42 930.481L437.42 802.627L437.222 337.354L437.532 189.91C437.617 168.72 436.27 146.683 437.483 125.606C437.652 122.661 438.246 120.419 440.304 118.205C444.987 115.739 453.075 116.836 458.434 116.742C459.293 117.371 461.25 118.373 461.401 119.391C462.542 127.072 461.782 135.67 461.785 143.462L461.787 191.753L461.617 362.52L461.796 719.7C461.854 789.024 462.445 858.397 461.641 927.715C461.774 951.065 460.453 975.381 462.005 998.638C461.773 1005.15 464.006 1018.96 459.153 1023.34C455.631 1026.52 450.07 1027 445.551 1026.56C442.167 1026.24 439.823 1025.12 437.205 1022.95Z"/><path fill="#0299B5" transform="scale(0.135281 0.135379)" d="M451.575 1020.99C458.266 993.248 453.501 957.361 453.796 928.361C453.871 920.937 453.779 913.368 454.507 905.977C455.094 900.016 456.493 894.076 456.805 888.101C457.131 881.867 454.782 872.056 458.525 866.928C459.771 865.22 457.817 852.206 457.595 849.393L458.186 852.032C458.716 841.82 457.822 831.705 457.873 821.505C457.953 805.509 458.748 789.356 459.055 773.326C462.237 795.137 458.068 922.275 461.106 926.962C461.273 927.221 461.463 927.464 461.641 927.715C461.774 951.065 460.453 975.381 462.005 998.638C461.773 1005.15 464.006 1018.96 459.153 1023.34C455.631 1026.52 450.07 1027 445.551 1026.56C442.167 1026.24 439.823 1025.12 437.205 1022.95C439.723 1018.95 441.189 1015.28 442.513 1010.75L442.42 1011.21C444.865 1015.52 447.668 1017.99 451.575 1020.99Z"/><path fill="#0299B5" transform="scale(0.135281 0.135379)" d="M366.263 216.336C371.814 215.899 377.245 215.075 382.227 218.037C384.424 221.257 384.497 223.442 384.614 227.312C385.262 248.783 384.601 270.427 384.527 291.913L384.731 389.259L384.364 801.145C384.352 814.659 385.372 918.219 384.568 919.629C384.045 920.548 382.545 921.789 381.789 922.597C374.668 923.973 368.999 923.22 361.994 921.834C361.199 909.996 362.034 897.557 362.117 885.665C362.367 860.427 362.462 835.188 362.405 809.949L362.02 508.155L361.864 274.814C361.894 267.066 360.677 225.579 361.74 221.422C362.545 218.276 363.633 217.933 366.263 216.336Z"/><path fill="#0299B5" transform="scale(0.135281 0.135379)" d="M512.524 279.681C516.66 278.156 525.984 276.009 530.092 278.01C532.383 279.126 533.619 280.89 534.361 283.296C537.478 293.417 537.099 861.88 534.934 866.445C533.935 868.552 531.902 870.009 529.688 870.596C524.506 871.969 518.757 870.256 513.951 868.39C513.247 868.116 513.537 868.21 512.741 868.062C514.395 835.239 512.964 801.613 512.865 768.699L512.621 589.884L512.623 386.02C512.647 350.722 514.012 314.928 512.524 279.681Z"/><path fill="#0299B5" transform="scale(0.135281 0.135379)" d="M285.716 341.857C292.28 339.22 298.544 339.228 305.197 341.768C307.952 346.917 306.417 406.057 306.433 416.061L306.636 676.082C306.789 704.251 306.76 732.421 306.548 760.589C306.465 770.281 307.745 781.256 306.439 790.8C306.199 792.553 305.71 793.845 304.268 794.879C301.187 797.09 296.498 797.28 292.866 796.658C290.111 796.186 287.681 795.198 286.038 792.839C284.408 784.439 285.31 774.974 285.251 766.408L285.037 715.007L285.012 526.119L284.879 395.998C284.865 382.802 282.891 353.667 285.716 341.857Z"/><path fill="#0299B5" transform="scale(0.135281 0.135379)" d="M285.716 341.857C292.28 339.22 298.544 339.228 305.197 341.768C304.519 344.6 303.473 347.336 301.554 349.55C298.592 348.44 295.616 347.18 292.496 346.603C292.061 346.523 291.197 346.386 290.763 346.258C287.727 345.363 287.339 344.427 285.716 341.857Z"/><path fill="#0299B5" transform="scale(0.135281 0.135379)" d="M594.906 373.335C600.28 373.106 607.58 372.053 612.227 375.128C614.969 383.554 612.976 431.08 612.964 442.517L612.948 605.199L612.944 718.125C612.896 736.503 613.532 755.151 612.571 773.485C612.395 776.858 611.802 777.816 609.365 779.974C605.168 780.68 599.934 781.576 595.845 780.151C593.9 778.356 592.794 777.37 592.582 774.545C591.246 756.804 592.42 737.737 592.318 719.855L592.136 594.927L592.17 450.454C592.233 427.216 591.442 403.472 592.612 380.293C592.77 377.161 592.964 375.806 594.906 373.335Z"/><path fill="#0299B5" transform="scale(0.135281 0.135379)" d="M684.629 432.283C688.888 431.946 693.564 431.564 697.535 433.357C699.643 436.125 699.255 439.367 699.322 442.79C700.509 502.755 698.991 563.053 698.849 623.048L698.891 682.954C698.952 693.567 699.869 704.979 698.729 715.506C696.664 718.378 695.078 718.805 691.922 720.295C687.572 720.416 682.039 720.516 678.656 717.414C676.33 701.485 677.914 437.334 678.561 436.037C679.852 433.445 682.137 433.155 684.629 432.283Z"/><path fill="#0299B5" transform="scale(0.135281 0.135379)" d="M206.622 432.182C207.811 432.06 208.972 431.987 210.168 431.984C213.712 431.977 218.184 431.886 220.794 434.665C222.075 436.029 221.87 438.393 221.918 440.217C222.479 461.357 221.903 482.679 221.891 503.839L221.963 616.432L221.823 682.518C221.829 693.157 222.737 704.369 221.903 714.921C221.704 717.445 218.813 719.158 216.956 720.559C216.003 720.682 215.049 720.776 214.087 720.793C210.9 720.848 206.092 720.5 203.82 718.012C201.876 715.882 202.246 712.333 202.165 709.568C200.553 654.685 202.22 599.253 202.243 544.305L202.292 472.695C202.306 461.321 201.552 449.409 202.436 438.098C202.683 434.94 204.405 434.051 206.622 432.182Z"/><path fill="#0299B5" fill-opacity="0.011764706" transform="scale(0.135281 0.135379)" d="M458.434 116.742C461.292 116.576 463.632 116.254 466.21 117.784C468.924 124.545 466.814 301.045 466.534 318.999C465.992 352.328 466.121 385.664 466.923 418.988C467.218 431.428 468.498 443.758 468.542 456.231C468.593 470.907 467.324 485.429 466.979 500.073C466.49 526.748 466.311 553.428 466.443 580.107C466.536 671.582 469.112 763.364 467.247 854.82C466.904 871.616 465.242 888.286 464.66 905.043C463.959 925.239 464.508 945.602 464.507 965.811C464.506 974.658 465.586 985.29 463.528 993.885C463.256 995.02 463.306 996.193 463.334 997.352L462.005 998.638C460.453 975.381 461.774 951.065 461.641 927.715C462.445 858.397 461.854 789.024 461.796 719.7L461.617 362.52L461.787 191.753L461.785 143.462C461.782 135.67 462.542 127.072 461.401 119.391C461.25 118.373 459.293 117.371 458.434 116.742Z"/><path fill="#0299B5" transform="scale(0.135281 0.135379)" d="M126.84 488.125C128.334 488.147 129.827 488.205 131.317 488.298C134.598 488.522 137.362 489.107 139.613 491.705C141.125 504.98 140.301 656.727 138.865 660.598C137.693 663.759 135.046 664.786 132.206 666.063C130.555 665.932 128.906 665.764 127.262 665.558C124.227 665.161 121.608 664.506 119.702 661.899C118.3 659.982 118.285 502.439 119.775 492.678C121.511 490.092 124.082 489.302 126.84 488.125Z"/><path fill="#0299B5" transform="scale(0.135281 0.135379)" d="M845.886 489.226C849.856 488.958 854.095 488.692 858.039 489.331C860.601 489.745 862.221 490.839 863.681 492.948C866.566 512.163 864.587 549.369 864.502 570.135L864.131 628.195C864.047 637.96 864.493 648.078 863.666 657.802C863.462 660.191 862.746 662.078 861.543 664.143C857.916 665.376 852.664 666.601 848.952 665.133C846.747 664.261 845.515 662.898 844.847 660.65C842.336 652.198 844.32 579.239 844.239 563.366C844.128 541.567 842.498 519.344 843.603 497.594C843.767 494.37 844.153 491.995 845.886 489.226Z"/><path fill="#0299B5" transform="scale(0.135281 0.135379)" d="M761.919 490.104C767.222 488.952 772.049 488.123 777.242 490.163C777.697 490.633 779.009 491.681 779.231 492.214C780.589 495.465 780.01 637.788 779.761 653.393C779.692 657.736 779.845 660.923 777.527 664.674C774.161 666.932 770.817 666.904 766.969 666.119C765.631 665.846 764.311 665.508 762.982 665.195C761.651 663.747 760.771 662.478 760.461 660.489C759.332 653.246 760.126 644.758 760.154 637.428L760.375 591.048C760.543 572.02 760.594 552.99 760.531 533.961C760.41 521.311 759.656 508.414 760.132 495.791C760.216 493.549 760.456 491.925 761.919 490.104Z"/><path fill="#0299B5" transform="scale(0.135281 0.135379)" d="M761.919 490.104C767.222 488.952 772.049 488.123 777.242 490.163C777.697 490.633 779.009 491.681 779.231 492.214C780.589 495.465 780.01 637.788 779.761 653.393C779.692 657.736 779.845 660.923 777.527 664.674C774.161 666.932 770.817 666.904 766.969 666.119C765.631 665.846 764.311 665.508 762.982 665.195C763.077 662.825 763.432 660.676 763.96 658.365C766.849 655.711 768.245 659.253 772.133 657.893C773.758 655.798 774.622 654.359 774.817 651.641C775.349 644.234 774.664 636.327 774.592 628.884C774.49 613.758 774.469 598.633 774.529 583.507C774.702 560.183 777.107 536.316 775.524 513.074C775.198 508.285 773.613 502.411 776.797 498.777L776.181 497.05C773.123 494.527 769.547 495.515 765.976 494.478C763.327 493.708 763.142 492.423 761.919 490.104Z"/><path fill="#0299B5" fill-opacity="0.011764706" transform="scale(0.135281 0.135379)" d="M512.741 868.062C511.177 867.795 509.751 867.157 508.284 866.575C506.83 858.5 507.76 848.951 507.742 840.712C507.695 817.967 508.332 795.25 507.997 772.5C507.293 675.668 507.139 578.833 507.535 482C507.712 454.329 508.569 426.681 508.58 398.979C508.585 385.719 506.683 287.696 509.223 281.759C509.871 280.245 511.058 280.238 512.524 279.681C514.012 314.928 512.647 350.722 512.623 386.02L512.621 589.884L512.865 768.699C512.964 801.613 514.395 835.239 512.741 868.062Z"/><path fill="#0299B5" fill-opacity="0.011764706" transform="scale(0.135281 0.135379)" d="M2208.2 371.662C2218.28 371.36 2275.29 370.096 2279.77 372.34C2268.25 375.627 2228.88 372.637 2213.86 373.282C2213.84 430.613 2213.43 487.942 2212.61 545.267C2212.27 566.933 2213.13 589.095 2212.07 610.693C2209.86 604.742 2208.47 598.518 2207.95 592.192C2205.88 568.597 2207.41 543.58 2207.46 519.831L2208.2 371.662Z"/><path fill="#0299B5" fill-opacity="0.011764706" transform="scale(0.135281 0.135379)" d="M2578.75 554.961C2577.71 554.494 2577.23 553.832 2576.52 552.964C2575.83 544.459 2575.74 457.597 2577.58 453.187C2580.45 451.592 2583.99 452.126 2587.2 452.196C2585.52 452.951 2583.95 453.674 2582.16 454.101C2579.64 462.782 2581.57 476.367 2581.78 485.575C2582.3 507.983 2583.55 533.017 2578.75 554.961Z"/></svg>