<?xml version="1.0" encoding="utf-8"?>

<!DOCTYPE svg PUBLIC "-//W3C//DTD SVG 1.1//EN" "http://www.w3.org/Graphics/SVG/1.1/DTD/svg11.dtd">
<!-- Uploaded to: SVG Repo, www.svgrepo.com, Generator: SVG Repo Mixer Tools -->
<svg version="1.1" id="_x32_" xmlns="http://www.w3.org/2000/svg" xmlns:xlink="http://www.w3.org/1999/xlink" 
	 width="800px" height="800px" viewBox="0 0 512 512"  xml:space="preserve">
<g fill="currentColor">
	<path class="st0" d="M507.906,327.797l-52.781-39.438v-43.094c0-5.047-4.094-9.125-9.125-9.125c-5.047,0-9.125,4.078-9.125,9.125
		v29.453l-50.453-37.703v-29.313c0-5.031-4.078-9.141-9.125-9.141s-9.125,4.109-9.125,9.141v15.672l-75.953-56.75
		c0,0,0-72.453,0-90.969S272.094,19.313,256,19.313s-36.219,37.828-36.219,56.344s0,90.969,0,90.969l-75.953,56.75v-15.672
		c0-5.031-4.078-9.141-9.125-9.141s-9.125,4.109-9.125,9.141v29.313l-50.453,37.688v-29.438c0-5.047-4.094-9.125-9.125-9.125
		s-9.125,4.078-9.125,9.125v43.094L4.094,327.797C1.516,329.734,0,332.75,0,335.953v25.063c0,3.469,1.75,6.672,4.656,8.563
		c2.875,1.875,6.547,2.156,9.688,0.75l42.531-19.672v13.766c0,5.031,4.094,9.109,9.125,9.109s9.125-4.078,9.125-9.109v-22.219
		l50.453-23.328v18.703c0,5.047,4.078,9.125,9.125,9.125s9.125-4.078,9.125-9.125v-27.156l82.828-38.328l7.219,127.984
		c0,10.266-3.922,18.281-12.719,24.5c-18.063,12.797-49.594,33.453-49.594,33.453c-4.031,2.875-5.75,8.047-4.25,12.766
		c1.516,4.734,5.906,7.938,10.875,7.938l64.406-10.594v11.141c0,7.406,6,13.406,13.406,13.406s13.406-6,13.406-13.406v-11.141
		l64.406,10.594c4.969,0,9.344-3.203,10.875-7.938c1.5-4.719-0.219-9.891-4.25-12.766c0,0-31.547-20.656-49.609-33.453
		c-8.781-6.219-12.703-14.234-12.703-24.5l7.219-127.984l82.828,38.328v27.156c0,5.047,4.078,9.125,9.125,9.125
		s9.125-4.078,9.125-9.125v-18.703l50.453,23.328v22.219c0,5.031,4.078,9.109,9.125,9.109c5.031,0,9.125-4.078,9.125-9.109v-13.766
		l42.516,19.672c3.156,1.406,6.813,1.125,9.703-0.75c2.906-1.891,4.656-5.094,4.656-8.563v-25.063
		C512,332.75,510.484,329.734,507.906,327.797z M234.531,74.047c0-11.844,9.609-21.453,21.469-21.453
		c11.844,0,21.469,9.609,21.469,21.453H234.531z"/>
</g>
</svg>