<?xml version="1.0" encoding="utf-8"?>

<!DOCTYPE svg PUBLIC "-//W3C//DTD SVG 1.1//EN" "http://www.w3.org/Graphics/SVG/1.1/DTD/svg11.dtd">
<!-- Uploaded to: SVG Repo, www.svgrepo.com, Generator: SVG Repo Mixer Tools -->
<svg version="1.1" id="_x32_" xmlns="http://www.w3.org/2000/svg" xmlns:xlink="http://www.w3.org/1999/xlink" 
	 width="800px" height="800px" viewBox="0 0 512 512"  xml:space="preserve">
<g fill="currentColor">
	<path class="st0" d="M34.313,203.5c2.297-5.031,6.688-13.297,14.422-27.813c3.547-6.688,7.516-14.063,11.578-21.625H24.719
		C11.078,154.063,0,165.109,0,178.781C0,192.422,11.078,203.5,24.719,203.5H34.313z"/>
	<path class="st0" d="M487.266,154.063h-35.563c4.063,7.563,8.016,14.938,11.547,21.625c7.734,14.516,12.109,22.781,14.438,27.813
		h9.578c13.641,0,24.734-11.078,24.734-24.719C512,165.109,500.906,154.063,487.266,154.063z"/>
	<path class="st0" d="M39.375,417.781c0,18.391,14.953,33.328,33.344,33.328c18.406,0,33.313-14.938,33.313-33.328v-31.516H39.375
		V417.781z"/>
	<path class="st0" d="M405.938,417.781c0,18.391,14.906,33.328,33.313,33.328c18.422,0,33.344-14.938,33.344-33.328v-31.516h-66.656
		V417.781z"/>
	<path class="st0" d="M467.875,209.703c1.656,0.5-61.719-115.813-64.75-122.109c-8-16.672-27.75-26.703-47.047-26.703
		c-22.281,0-84.328,0-84.328,0s-93.578,0-115.859,0c-19.297,0-39.047,10.031-47.063,26.703
		c-3.031,6.297-66.391,122.609-64.703,122.109c0,0-20.516,20.438-22.063,22.063c-8.641,9.281-8,17.297-8,25.313
		c0,0,0,75.297,0,92.578c0,17.266,3.078,26.719,23.422,26.719H474.5c20.344,0,23.438-9.453,23.438-26.719
		c0-17.281,0-92.578,0-92.578c0-8.016,0.625-16.031-8.031-25.313C488.391,230.141,467.875,209.703,467.875,209.703z M96.563,174.016
		c0,0,40.688-73.313,43.094-78.109c4.109-8.203,15.828-14.125,27.813-14.125h177.047c12,0,23.688,5.922,27.797,14.125
		c2.422,4.797,43.125,78.109,43.125,78.109c3.75,6.75,0.438,19.313-10.672,19.313H107.203
		C96.094,193.328,92.813,180.766,96.563,174.016z M153.719,329.75c-2.781,3.438-7.063,5.297-11.453,4.969L73,329.625
		c-6.047-0.422-11.047-4.859-12.234-10.797l-4.625-23.109c-0.828-4.188,0.344-8.516,3.203-11.672c2.844-3.156,7-4.797,11.25-4.406
		l67.422,6.219c5.484,0.5,10.141,4.313,11.688,9.625l6.484,21.984C157.438,321.703,156.516,326.313,153.719,329.75z
		 M312.781,347.172c0,2.734-2.234,4.953-4.938,4.953H204.188c-2.75,0-4.969-2.219-4.969-4.953V301.5
		c0-2.703,2.219-4.906,4.969-4.906h103.656c2.703,0,4.938,2.203,4.938,4.906V347.172z M455.859,295.719l-4.641,23.109
		c-1.172,5.938-6.188,10.375-12.219,10.797l-69.266,5.094c-4.406,0.328-8.703-1.531-11.484-4.969
		c-2.766-3.438-3.688-8.047-2.438-12.281l6.469-21.984c1.563-5.313,6.188-9.125,11.688-9.625l67.422-6.219
		c4.25-0.391,8.406,1.25,11.266,4.406S456.688,291.531,455.859,295.719z"/>
</g>
</svg>