<?xml version="1.0" encoding="utf-8"?>

<!DOCTYPE svg PUBLIC "-//W3C//DTD SVG 1.1//EN" "http://www.w3.org/Graphics/SVG/1.1/DTD/svg11.dtd">
<!-- Uploaded to: SVG Repo, www.svgrepo.com, Generator: SVG Repo Mixer Tools -->
<svg height="800px" width="800px" version="1.1" id="_x32_" xmlns="http://www.w3.org/2000/svg" xmlns:xlink="http://www.w3.org/1999/xlink" 
	 viewBox="0 0 512 512"  xml:space="preserve">
<g fill="currentColor">
	<path class="st0" d="M94.02,267.524c-5.225,0-9.46,4.243-9.46,9.476c0,5.21,4.236,9.438,9.46,9.438
		c5.232,0,9.468-4.228,9.468-9.438C103.488,271.767,99.252,267.524,94.02,267.524z"/>
	<path class="st0" d="M380.5,267.524c-5.241,0-9.46,4.243-9.46,9.476c0,5.21,4.22,9.438,9.46,9.438c5.21,0,9.46-4.228,9.46-9.438
		C389.96,271.767,385.709,267.524,380.5,267.524z"/>
	<path class="st0" d="M166.142,167.941c-7.457,5.709-16.396,14.9-16.396,14.9c-0.729,0.676-0.974,1.727-0.614,2.64
		c0.354,0.913,1.236,1.534,2.226,1.534h110.516V133.86c-1.266-0.032-2.532-0.046-3.806-0.046
		C220.779,133.814,194.892,145.937,166.142,167.941z"/>
	<path class="st0" d="M359.876,168.348c-21.875-16.803-47.647-28.006-75.215-32.409v51.077h89.517c0.982,0,1.872-0.622,2.225-1.534
		c0.353-0.913,0.1-1.964-0.614-2.64C375.788,182.842,367.149,173.972,359.876,168.348z"/>
	<path class="st0" d="M477.059,246.463h-9.736c-5.662-21.107-19.075-39.054-36.982-50.578
		c-38.102-55.596-102.107-92.102-174.59-92.102c-63.852,0.046-111.913,32.11-150.59,76.45c-4.611-0.76-8.962-1.036-13.949-1.028
		C40.841,179.212,0,220.054,0,270.425c0,3.084,0.161,6.115,0.452,9.122l0.614,6.1h47.87c4.051,21.222,22.673,37.266,45.084,37.266
		c22.412,0,41.033-16.044,45.099-37.266h36.1h128.5h31.696c4.036,21.222,22.673,37.266,45.084,37.266
		c22.396,0,41.01-16.044,45.091-37.266h29.916h7.381h5.992l0.737-5.962c0.437-3.468,0.675-7.028,0.675-10.664
		c0-2.87-0.184-5.693-0.46-8.494h7.228c5.786,0,10.964,2.325,14.762,6.115c3.791,3.798,6.116,8.977,6.116,14.762v66.077
		c0,5.793-2.325,10.972-6.116,14.762c-3.798,3.79-8.976,6.123-14.762,6.123H284.055c-3.223-14.746-16.335-25.788-32.04-25.788
		H219.19v11.716h-20.631v11.724h20.631v18.752h-20.631v11.724h20.631v11.724h32.824c15.706,0,28.818-11.049,32.04-25.788h193.004
		C496.364,382.422,512,366.784,512,347.48v-66.077C512,262.1,496.364,246.463,477.059,246.463z M94.02,298.951
		c-12.13,0-21.959-9.821-21.959-21.951c0-12.146,9.821-21.975,21.959-21.975c12.138,0,21.974,9.837,21.974,21.975
		C115.994,289.13,106.158,298.951,94.02,298.951z M380.5,298.951c-12.154,0-21.99-9.821-21.99-21.951
		c0-12.146,9.836-21.975,21.99-21.975c12.123,0,21.959,9.837,21.959,21.975C402.458,289.13,392.622,298.951,380.5,298.951z
		 M456.527,272.082h-1.02h-29.363c-2.448-23.041-21.96-41.026-45.644-41.026c-23.716,0-43.212,17.985-45.668,41.026H303.72h-128.5
		h-35.54c-2.448-23.041-21.959-41.026-45.66-41.026s-43.189,17.985-45.659,41.026H13.642c0-0.56-0.084-1.097-0.084-1.657
		c0.008-21.461,8.693-40.826,22.749-54.913c14.079-14.056,33.43-22.734,54.905-22.734c5.892,0.023,9.736,0.33,15.061,1.465
		l3.982,0.867l2.632-3.138c36.483-43.319,82.35-74.67,142.864-74.623c68.362,0,128.6,34.618,164.193,87.306l0.806,1.204l1.236,0.752
		c20.861,12.967,34.749,36.046,34.749,62.41C456.734,270.056,456.573,271.054,456.527,272.082z"/>
</g>
</svg>