<?xml version="1.0" encoding="utf-8"?>

<!DOCTYPE svg PUBLIC "-//W3C//DTD SVG 1.1//EN" "http://www.w3.org/Graphics/SVG/1.1/DTD/svg11.dtd">
<!-- Uploaded to: SVG Repo, www.svgrepo.com, Generator: SVG Repo Mixer Tools -->
<svg height="800px" width="800px" version="1.1" id="_x32_" xmlns="http://www.w3.org/2000/svg" xmlns:xlink="http://www.w3.org/1999/xlink" 
	 viewBox="0 0 512 512"  xml:space="preserve">
<g fill="currentColor">
	<path class="st0" d="M506.031,151.867c-5.762-13.625-15.354-25.163-27.45-33.335c-12.071-8.172-26.76-12.968-42.406-12.968H382.94
		c-31.897,0-62.498,12.668-85.067,35.247l-24.266,24.258c1.396-16.701-3.126-25.405-8.687-30.975
		c-7.94-7.93-20.226-14.265-39.255-14.265c-19.028,0-31.315,6.335-39.237,14.265c-5.953,5.944-10.708,15.462-8.338,34.491
		c1.63,12.943,6.542,56.162,9.535,82.482l-70.844,70.827c-0.449,0.458-1.056,0.706-1.687,0.706H75.823
		c-10.416,0-20.442,2.121-29.528,5.969c-13.617,5.761-25.163,15.362-33.335,27.45C4.788,368.097-0.008,382.77,0,398.415
		c0,10.424,2.12,20.442,5.968,29.52c5.77,13.625,15.363,25.172,27.45,33.352c12.071,8.163,26.76,12.96,42.405,12.952h53.237
		c31.897,0,62.498-12.661,85.059-35.23l0.008-0.008l1.413-1.413l0.008-0.008l94.062-94.062l85.607-85.608
		c0.449-0.449,1.047-0.707,1.687-0.707h39.271c10.417,0,20.442-2.12,29.52-5.96c13.625-5.769,25.172-15.363,33.344-27.45
		c8.172-12.078,12.968-26.759,12.96-42.404C512,170.97,509.88,160.945,506.031,151.867z M473.169,197.006
		c-3.025,7.183-8.138,13.343-14.556,17.674c-6.435,4.331-14.058,6.841-22.438,6.841h-39.271c-10.092,0-19.776,4.024-26.918,11.157
		l-85.607,85.607l-94.07,94.07v0.009l-1.422,1.413c-15.862,15.878-37.384,24.781-59.829,24.79H75.823
		c-5.594-0.009-10.832-1.13-15.62-3.159c-7.182-3.026-13.35-8.139-17.681-14.556c-4.331-6.425-6.833-14.057-6.842-22.436
		c0-5.587,1.122-10.824,3.142-15.612c3.042-7.174,8.146-13.35,14.572-17.682c6.418-4.331,14.049-6.834,22.429-6.842h39.271
		c10.092,0,19.776-4.007,26.918-11.156l85.607-85.607l95.484-95.476c15.87-15.878,37.392-24.797,59.837-24.797h53.236
		c5.596,0,10.832,1.131,15.621,3.151c7.174,3.034,13.342,8.155,17.681,14.564c4.331,6.434,6.834,14.058,6.842,22.429
		C476.32,186.973,475.198,192.218,473.169,197.006z"/>
	<path class="st0" d="M225.665,106.743c19.054,0,34.5-15.436,34.5-34.482c0-19.053-15.446-34.499-34.5-34.499
		c-19.045,0-34.482,15.446-34.482,34.499C191.183,91.307,206.62,106.743,225.665,106.743z"/>
	<path class="st0" d="M424.33,362.935l-67.293,67.303v-53.636c0-7.116-5.778-12.885-12.894-12.885s-12.886,5.77-12.886,12.885
		v84.743c0,7.116,5.77,12.893,12.886,12.893h84.752c7.116,0,12.885-5.778,12.885-12.893c0-7.116-5.769-12.885-12.885-12.885h-53.636
		l67.293-67.294c5.046-5.038,5.046-13.193,0-18.23C437.523,357.905,429.368,357.905,424.33,362.935z"/>
</g>
</svg>