<?xml version="1.0" encoding="utf-8"?>

<!DOCTYPE svg PUBLIC "-//W3C//DTD SVG 1.1//EN" "http://www.w3.org/Graphics/SVG/1.1/DTD/svg11.dtd">
<!-- Uploaded to: SVG Repo, www.svgrepo.com, Generator: SVG Repo Mixer Tools -->
<svg height="800px" width="800px" version="1.1" id="_x32_" xmlns="http://www.w3.org/2000/svg" xmlns:xlink="http://www.w3.org/1999/xlink" 
	 viewBox="0 0 512 512"  xml:space="preserve">
<g fill="currentColor">
	<path class="st0" d="M246.597,97.325c-3.884-14.999-17.414-25.472-32.921-25.472H97.013c-9.395,0-17.016,7.613-17.016,17.001
		v160.995h-62.99C7.613,249.849,0,257.462,0,266.856v114.998h19.181c4.346-28.45,28.974-50.312,58.62-50.312
		c29.638,0,54.267,21.862,58.62,50.312h50.758c4.346-28.45,28.974-50.312,58.62-50.312c29.639,0,54.267,21.862,58.621,50.312h9.574
		V249.849h-27.848L246.597,97.325z M127.996,239.852V119.844h74.862l31.108,120.009H127.996z"/>
	<polygon class="st0" points="363.994,377.853 363.994,69.852 326,69.852 326,403.849 512,403.849 512,377.853 	"/>
	<path class="st0" d="M77.801,339.546c-28.333,0-51.305,22.971-51.305,51.297c0,28.333,22.972,51.305,51.305,51.305
		c28.333,0,51.297-22.972,51.297-51.305C129.098,362.517,106.134,339.546,77.801,339.546z M77.801,408.444
		c-9.723,0-17.602-7.879-17.602-17.602c0-9.708,7.879-17.586,17.602-17.586c9.723,0,17.586,7.879,17.586,17.586
		C95.388,400.566,87.524,408.444,77.801,408.444z"/>
	<path class="st0" d="M245.8,339.546c-28.333,0-51.304,22.971-51.304,51.297c0,28.333,22.971,51.305,51.304,51.305
		c28.334,0,51.297-22.972,51.297-51.305C297.097,362.517,274.134,339.546,245.8,339.546z M245.8,408.444
		c-9.723,0-17.602-7.879-17.602-17.602c0-9.708,7.879-17.586,17.602-17.586c9.724,0,17.586,7.879,17.586,17.586
		C263.386,400.566,255.523,408.444,245.8,408.444z"/>
</g>
</svg>