<?xml version="1.0" encoding="utf-8"?>

<!DOCTYPE svg PUBLIC "-//W3C//DTD SVG 1.1//EN" "http://www.w3.org/Graphics/SVG/1.1/DTD/svg11.dtd">
<!-- Uploaded to: SVG Repo, www.svgrepo.com, Generator: SVG Repo Mixer Tools -->
<svg height="800px" width="800px" version="1.1" id="_x32_" xmlns="http://www.w3.org/2000/svg" xmlns:xlink="http://www.w3.org/1999/xlink" 
	 viewBox="0 0 512 512"  xml:space="preserve">
<g fill="currentColor">
	<path class="st0" d="M272.775,381.901c-5.642,1.279-12.073,1.947-19.004,2.248H55.984h-0.051c-0.308,0.007-0.624,0.007-0.94,0.007
		c-12.764,0.008-24.275-3.196-32.932-8.264l-8.65,14.824c11.599,6.751,25.976,10.593,41.582,10.6c0.375,0,0.761,0,1.146-0.008H254.2
		l0.187-0.007c7.607-0.33,15.045-1.065,22.17-2.674c7.126-1.609,13.976-4.122,20.15-8.132l-9.344-14.391
		C283.335,378.728,278.468,380.615,272.775,381.901z"/>
	<polygon class="st0" points="172.798,159.579 189.397,159.579 189.397,131.025 360.924,131.025 360.924,110.683 0,110.683 
		0,131.025 172.798,131.025 	"/>
	<path class="st0" d="M458.245,244.066l45.08-99.172c1.065-2.336,0.87-5.061-0.525-7.236c-1.392-2.16-3.791-3.46-6.362-3.46h-30.821
		c-6.798,0-13.208,3.203-17.288,8.64l-40.125,53.502c-3.063,4.091-7.868,6.486-12.969,6.486h-76.576l-18.009-19.071
		c-9.19-9.733-21.98-15.25-35.357-15.25H160.831c-28.697,0-55.573,14.075-71.929,37.656l-46.604,67.195
		c-21.057,0-38.126,17.064-38.126,38.126v3.82c0,21.047,17.069,38.119,38.126,38.119h28.87h70.534h101.031
		c20.22,0,39.279-9.432,51.547-25.506l35.82-46.934l103.591-18.284C444.493,261.021,453.72,254.02,458.245,244.066z
		 M170.293,260.646c0,5.965-4.834,10.806-10.802,10.806H91.073c-3.82,0-7.324-2.123-9.094-5.509
		c-1.77-3.379-1.516-7.464,0.661-10.608l25.058-36.142c12.08-17.41,31.944-27.812,53.134-27.812h2.44
		c3.878,0,7.022,3.144,7.022,7.03V260.646z M244.952,260.646c0,5.965-4.834,10.806-10.806,10.806h-32.077
		c-5.965,0-10.806-4.841-10.806-10.806v-58.46c0-5.958,4.841-10.806,10.806-10.806h32.077c5.972,0,10.806,4.848,10.806,10.806
		V260.646z"/>
	<path class="st0" d="M495.387,207.042c-1.737-1.733-3.592-3.35-5.542-4.856l-5.718,12.577c0.628,0.566,1.237,1.132,1.828,1.712
		c7.857,7.875,12.698,18.674,12.702,30.67c-0.004,11.988-4.844,22.795-12.702,30.663c-7.871,7.86-18.67,12.708-30.67,12.708
		c-11.993,0-22.795-4.848-30.663-12.708c-0.529-0.53-1.043-1.072-1.543-1.631l-14.85,2.622c2.05,3.049,4.378,5.876,6.957,8.448
		c10.244,10.248,24.463,16.617,40.099,16.61c15.64,0.008,29.862-6.362,40.102-16.61C505.638,277.006,512,262.792,512,247.144
		C512,231.505,505.638,217.289,495.387,207.042z"/>
</g>
</svg>