<?xml version="1.0" encoding="utf-8"?>

<!DOCTYPE svg PUBLIC "-//W3C//DTD SVG 1.1//EN" "http://www.w3.org/Graphics/SVG/1.1/DTD/svg11.dtd">
<!-- Uploaded to: SVG Repo, www.svgrepo.com, Generator: SVG Repo Mixer Tools -->
<svg version="1.1" id="_x32_" xmlns="http://www.w3.org/2000/svg" xmlns:xlink="http://www.w3.org/1999/xlink" 
	 width="800px" height="800px" viewBox="0 0 512 512"  xml:space="preserve">
<g fill="currentColor">
	<path class="st0" d="M106.781,327.828c-22.438,0-40.625,18.188-40.625,40.625c0,22.453,18.188,40.625,40.625,40.625
		s40.625-18.172,40.625-40.625C147.406,346.016,129.219,327.828,106.781,327.828z M106.781,388.391
		c-11,0-19.938-8.938-19.938-19.938c0-10.984,8.938-19.938,19.938-19.938s19.938,8.953,19.938,19.938
		C126.719,379.453,117.781,388.391,106.781,388.391z"/>
	<path class="st0" d="M389.531,327.828c-22.422,0-40.609,18.188-40.609,40.625c0,22.453,18.188,40.625,40.609,40.625
		c22.453,0,40.641-18.172,40.641-40.625C430.172,346.016,411.984,327.828,389.531,327.828z M389.531,388.391
		c-10.984,0-19.922-8.938-19.922-19.938c0-10.984,8.938-19.938,19.922-19.938c11,0,19.938,8.953,19.938,19.938
		C409.469,379.453,400.531,388.391,389.531,388.391z"/>
	<path class="st0" d="M106.781,362.359c-3.359,0-6.094,2.734-6.094,6.094c0,3.375,2.734,6.094,6.094,6.094
		c3.375,0,6.094-2.719,6.094-6.094C112.875,365.094,110.156,362.359,106.781,362.359z"/>
	<path class="st0" d="M389.531,362.359c-3.344,0-6.078,2.734-6.078,6.094c0,3.375,2.734,6.094,6.078,6.094
		c3.375,0,6.109-2.719,6.109-6.094C395.641,365.094,392.906,362.359,389.531,362.359z"/>
	<path class="st0" d="M150.625,346.781c3.25,6.547,5.125,13.891,5.125,21.672c0,3-0.313,5.938-0.828,8.781h3.781h178.922h3.781
		c-0.531-2.844-0.844-5.781-0.844-8.781c0-7.781,1.875-15.125,5.125-21.672H150.625z"/>
	<path class="st0" d="M490.563,289.781l-65.016-34.469c-4.391-3.641-29.953-24.438-66.328-45.375
		c-39.859-22.906-92.563-46.188-145.234-46.281c-103.141,0.031-158.953,50.266-159.828,51.063h0.016l-42.609,38.453
		C4.188,259.813,0,269.25,0,279.156v73.734c0,13.438,10.906,24.328,24.344,24.344h30.516h3.781
		c-0.516-2.844-0.828-5.781-0.828-8.781c0-7.781,1.875-15.125,5.125-21.672h-46.25v-9.734H69.25
		c9-10.719,22.469-17.563,37.531-17.563s28.531,6.844,37.531,17.563h8.047v-62.609h165.563v62.609h34.094
		c8.984-10.719,22.453-17.563,37.516-17.563s28.547,6.844,37.531,17.563h68.25v9.734h-61.906c3.25,6.547,5.109,13.891,5.109,21.672
		c0,3-0.297,5.938-0.828,8.781h3.781h46.188C501.094,377.219,512,366.328,512,352.891v-27.453
		C512,310.5,503.75,296.797,490.563,289.781z M200.875,200.391v48.797c0,2.656-2.156,4.813-4.813,4.813H78.719
		c-2.656,0-4.813-2.156-4.813-4.813v-9.875c0-1.359,0.563-2.641,1.594-3.563l10.875-9.813c0.375-0.328,35.406-30.813,99.734-38.094
		c4.766-0.531,9.578-0.781,9.578-0.781c1.313-0.125,2.641,0.328,3.625,1.25c1,0.906,1.563,2.188,1.563,3.531V200.391z
		 M369.938,250.656c-0.625,2.016-2.484,3.375-4.594,3.375h-11.109H236.594c-2.641,0-4.797-2.141-4.797-4.797v-48.813v-7.844
		c0-1.391,0.609-2.719,1.641-3.625c1.063-0.906,2.469-1.328,3.828-1.141c0,0,4.234,0.406,9.078,1.297
		c39.766,7.359,78.781,28.016,106.563,45.734c11.438,7.281,15.156,10.438,15.156,10.438
		C369.797,246.469,370.563,248.656,369.938,250.656z M477.547,310.531c-1.703,3.641-8.547,3.922-18.672,1.719
		c-14.625-3.203-25.656-11.031-21.219-20.484c4.438-9.422,17.5-5.906,29.313,3.297C475.125,301.438,479.25,306.891,477.547,310.531z
		"/>
	<polygon class="st0" points="247.625,301.141 239.5,284.641 231.359,301.141 213.156,303.781 226.344,316.625 223.219,334.75 
		239.5,326.188 255.781,334.75 252.656,316.625 265.844,303.781 	"/>
	<path class="st0" d="M229.875,107.906c-0.125-2.781-3.016-4.984-6.531-4.984h-22.531c-3.531,0-6.422,2.203-6.563,4.984
		l-1.406,30.375h38.438L229.875,107.906z"/>
	<rect x="187.844" y="146.125" class="st0" width="48.453" height="11.25"/>
</g>
</svg>