<?xml version="1.0" encoding="utf-8"?>

<!DOCTYPE svg PUBLIC "-//W3C//DTD SVG 1.1//EN" "http://www.w3.org/Graphics/SVG/1.1/DTD/svg11.dtd">
<!-- Uploaded to: SVG Repo, www.svgrepo.com, Generator: SVG Repo Mixer Tools -->
<svg height="800px" width="800px" version="1.1" id="_x32_" xmlns="http://www.w3.org/2000/svg" xmlns:xlink="http://www.w3.org/1999/xlink" 
	 viewBox="0 0 512 512"  xml:space="preserve">
<g fill="currentColor">
	<path class="st0" d="M324.632,200c-117.359-32-144-45.359-96-98.641C262.234,63.922,314.155,25.282,352.39,0h-56.961
		c-57.594,32.242-123.117,70.961-162.797,120c-16,19.68-24.477,37.359-26.719,53.438c4-8.078,12.321-13.359,21.516-13.359
		c10.164,0,19.203,6.398,22.563,15.922c0.242,0.562,21.203,58.156,57.203,98.242c2.32,2.554,4,5.602,5.039,8.797
		c51.039,24,86.882,39.039,45.679,84.961c-6.484,7.203-12.718,14.242-18.718,20.961c-5.125,5.68-10,11.282-14.883,16.641
		C182.554,452.398,151.351,486.961,123.273,512H390.07c26.882-41.117,73.679-118.242,81.203-165.359
		C481.913,280,446.875,233.359,324.632,200z"/>
	<path class="st0" d="M146.226,430.75V376c0,0,29.867,18.25,69.68,7.187c-44.79-50.328-54.75-88.492-54.75-88.492
		c9.961,4.977,28.203-4.422,28.203-4.422c-39.82-44.242-61.938-106.188-61.938-106.188s-22.125,61.946-61.945,106.188
		c0,0,18.242,9.398,28.202,4.422c0,0-9.961,38.164-54.75,88.492c39.813,11.063,69.68-7.187,69.68-7.187v54.75H123h8.836H146.226z"/>
	<path class="st0" d="M339.976,84.859c0,0-7.165,27.43-39.36,63.61c28.626,7.953,50.094-5.164,50.094-5.164v39.359h10.343h6.352
		h10.343v-39.359c0,0,21.477,13.117,50.102,5.164c-32.21-36.18-39.359-63.61-39.359-63.61c7.149,3.57,20.274-3.187,20.274-3.187
		c-28.633-31.805-44.531-76.336-44.531-76.336s-15.906,44.531-44.531,76.336C319.703,81.672,332.811,88.43,339.976,84.859z"/>
</g>
</svg>