<?xml version="1.0" encoding="utf-8"?>

<!DOCTYPE svg PUBLIC "-//W3C//DTD SVG 1.1//EN" "http://www.w3.org/Graphics/SVG/1.1/DTD/svg11.dtd">
<!-- Uploaded to: SVG Repo, www.svgrepo.com, Generator: SVG Repo Mixer Tools -->
<svg height="800px" width="800px" version="1.1" id="_x32_" xmlns="http://www.w3.org/2000/svg" xmlns:xlink="http://www.w3.org/1999/xlink" 
	 viewBox="0 0 512 512"  xml:space="preserve">
<g fill="currentColor">
	<path class="st0" d="M478.856,311.216c-8.622-10.778-21.08-29.08-8.622-35.554c5.18-2.697,11.646-0.271,13.458,4.368
		c1.418,3.606-2.688,8.556-2.688,8.556c-10.769-3.229-11.646,10.852-2.147,10.77c6.548-0.05,21.539-10.77,16.146-29.087
		c-5.376-18.31-27.874-22.342-42.004-16.154c-31.357,13.736-19.391,44.708-8.622,59.256c23.35,31.505,2.048,93.72-78.428,93.72
		c-54.142,0-82.795,0-95.778,0v-33.39h118.284c-49.069-143.027,8.18-248.32,8.18-248.32H270.17v-10.073h160.747v-11.449H270.17
		V67.288c17.286-14.408,42.922-10.491,66.297-13.416c34.48-4.303,37.349-35.906,37.349-35.906s-21.546,14.359-50.273,0
		c-23.408-11.704-45.873-5.287-53.372-2.508v-0.935h-14.204v89.336H113.252v11.449h142.715v10.073H147.224
		c0,0-57.24,105.293-8.18,248.32h16.351h100.572v33.39c-10.752,0-39.48,0-99.441,0c-80.476,0-98.368-59.969-78.418-93.72
		c10.498-17.776,23.604-47.708-8.622-59.256c-14.278-5.123-20.481,0.27-24.514-3.77c-4.033-4.041,5.655-12.926,5.655-12.926
		l-2.417-9.695l-19.228,13.105L0,261.975l1.565,8.622h29.76v5.476l-15.441,9.015l4.048,7.27l20.187-6.458
		c0,0,11.376-4.54,16.163-3.238c8.892,2.426-4.041,17.778-12.654,28.555c-75.411,94.245-8.286,189.596,63.461,189.596
		c71.738,0,154.149,0,154.149,0s82.418,0,154.156,0C487.142,500.812,554.258,405.461,478.856,311.216z"/>
</g>
</svg>