<?xml version="1.0" encoding="utf-8"?>

<!DOCTYPE svg PUBLIC "-//W3C//DTD SVG 1.1//EN" "http://www.w3.org/Graphics/SVG/1.1/DTD/svg11.dtd">
<!-- Uploaded to: SVG Repo, www.svgrepo.com, Generator: SVG Repo Mixer Tools -->
<svg version="1.1" id="_x32_" xmlns="http://www.w3.org/2000/svg" xmlns:xlink="http://www.w3.org/1999/xlink" 
	 width="800px" height="800px" viewBox="0 0 512 512"  xml:space="preserve">
<g fill="currentColor">
	<path class="st0" d="M391.938,280.781c-2.75-67.234-54.109-121.844-119.938-129.563v-47.859
		c12.219-5.953,20.703-18.375,20.703-32.875c0-20.281-16.438-36.703-36.703-36.703s-36.703,16.422-36.703,36.703
		c0,14.5,8.484,26.922,20.703,32.875v47.859c-65.828,7.734-117.188,62.344-119.938,129.578c8.5,7.609,60.828,27.844,135.938,31.328
		C330.984,308.641,383.25,288.469,391.938,280.781z M222.438,196.172c-26.063,9.656-46.609,30.141-56.359,56.219
		c-1.203,3.203-4.266,5.188-7.5,5.188c-0.922,0-1.875-0.156-2.797-0.5c-4.141-1.547-6.25-6.156-4.688-10.297
		c11.375-30.422,35.359-54.344,65.797-65.609c4.141-1.563,8.734,0.578,10.266,4.719
		C228.703,190.047,226.594,194.641,222.438,196.172z"/>
	<path class="st0" d="M511.625,355.219c-0.859-3.438-3.203-6.313-6.391-7.859l-33.984-16.469l-56.625-27.484
		c-17.484,17.375-84.172,37.516-158.625,40.75c-74.453-3.234-141.141-23.375-158.625-40.75L40.75,330.891L6.766,347.359
		c-3.188,1.547-5.531,4.422-6.391,7.859c-0.875,3.438-0.188,7.063,1.875,9.938c0,0-0.594,5.953,19.984,27.859
		C56.516,429.531,126.5,478.219,256,478.219s199.484-48.688,233.766-85.203c20.578-21.906,19.984-27.859,19.984-27.859
		C511.813,362.281,512.5,358.656,511.625,355.219z M135.672,408.828c-13.453,0-24.359-10.906-24.359-24.344
		c0-13.453,10.906-24.359,24.359-24.359s24.344,10.906,24.344,24.359C160.016,397.922,149.125,408.828,135.672,408.828z
		 M256,432.156c-13.453,0-24.344-10.891-24.344-24.344s10.891-24.344,24.344-24.344s24.344,10.891,24.344,24.344
		S269.453,432.156,256,432.156z M376.344,408.828c-13.453,0-24.359-10.906-24.359-24.344c0-13.453,10.906-24.359,24.359-24.359
		c13.438,0,24.344,10.906,24.344,24.359C400.688,397.922,389.781,408.828,376.344,408.828z"/>
</g>
</svg>