<?xml version="1.0" encoding="utf-8"?>

<!DOCTYPE svg PUBLIC "-//W3C//DTD SVG 1.1//EN" "http://www.w3.org/Graphics/SVG/1.1/DTD/svg11.dtd">
<!-- Uploaded to: SVG Repo, www.svgrepo.com, Generator: SVG Repo Mixer Tools -->
<svg height="800px" width="800px" version="1.1" id="_x32_" xmlns="http://www.w3.org/2000/svg" xmlns:xlink="http://www.w3.org/1999/xlink" 
	 viewBox="0 0 512 512"  xml:space="preserve">
<g fill="currentColor">
	<path class="st0" d="M257.27,122.85c16.63,0,30.121-13.49,30.121-30.12c0-16.632-13.491-30.121-30.121-30.121
		c-16.631,0-30.122,13.49-30.122,30.121C227.149,109.361,240.639,122.85,257.27,122.85z"/>
	<path class="st0" d="M511.507,64.571h-45.022c-16.64,133.154-160.883,251.899-265.514,273.49l26.15-26.142l0.455,7.914
		c21.762-7.727,44.432-18.924,66.747-32.932l0.58-9.842l0.74-33.672L417.2,121.843l-14.998-14.998L111.5,397.537
		c0,0-31.004,7.004-39.016,14.998l-36.848,36.856h77.614c6.004-8.52,11.144-28.212,12.731-34.698
		c9.734,2.106,19.62,3.319,29.515,3.319c21.823,0,57.922-19.094,57.922-19.094s18.469,21.628,67.559,21.628
		c36.83,0,56.834-21.628,56.834-21.628c36.821,49.09,88.025,9.359,88.025,9.359C523.783,293.888,511.507,64.571,511.507,64.571z"/>
	<path class="st0" d="M79.604,395.592c11.064-4.016,23.198-6.754,23.198-6.754l45.164-45.164
		c-14.651,0.759-34.19,0.419-49.768-4.764c8.663-2.552,33.69-7.397,40.203-10.582c-50.304-22.591-105.674-98.554-105.674-98.554H0
		C1.785,312.044,35.27,367.255,79.604,395.592z"/>
	<path class="st0" d="M214.783,276.864l81.915-81.932l0.437-19.71l23.814-4.541l40.488-40.48h-45.824c0,0-27.088,0-43.309,0h-12.303
		h-26.758c-14.792,0-30.87,16.104-30.87,30.88v102.596C202.372,270.717,207.868,276.338,214.783,276.864z"/>
</g>
</svg>